<svg width="569" height="331" viewBox="0 0 569 331" fill="none" xmlns="http://www.w3.org/2000/svg">
<path d="M517.891 116.032C517.1 114.15 516.248 112.291 515.338 110.467C505.164 90.0586 485.504 76.6034 465.859 65.8862C448.196 56.2488 429.134 49.3766 409.616 44.5984C390.92 40.0208 372.162 37.9691 353.801 32.0533C329.139 24.1051 305.518 12.0729 280.247 6.16472C253.004 -0.202329 223.406 -1.60994 195.682 1.81461C163.522 5.78679 123.646 17.1056 104.148 44.8221C87.6731 68.2425 75.7412 94.5167 59.274 117.91C47.3459 134.852 32.8301 149.85 20.929 166.81C9.02791 183.771 -0.374196 202.363 0.0114526 223.08H200.973C211.52 223.605 226.283 221.985 230.652 234.364C233.768 243.192 228.165 255.058 225.72 263.793C223.834 270.515 221.952 277.241 220.066 283.963L189.6 295.146C189.6 295.146 219.681 291.676 245.133 279.335C245.133 279.335 260.174 284.734 267.308 286.084L277.913 285.119L267.501 330.626C267.501 330.626 273.286 325.613 280.806 308.066L291.604 309.222L302.402 313.85L365.058 289.107C372.467 286.18 379.744 282.937 386.874 279.377C403.349 271.159 437.271 255.502 450.888 258.595C446.125 255.93 435.304 249.158 442.805 243.234C446.762 240.11 451.86 240.797 456.503 240.33C489.395 237.033 515.87 204.18 523.024 173.644C527.493 154.539 525.476 134.092 517.891 116.032Z" fill="url(#paint0_linear_113_1304)"/>
<path d="M24.6543 139.429C23.4511 139.167 22.7184 137.833 22.7531 136.599C22.7878 135.365 23.4048 134.231 24.0604 133.189C24.716 132.144 25.4449 131.111 25.7457 129.915C26.3435 127.536 25.148 125.114 23.9872 122.954" stroke="#C0D8F0" stroke-width="0.385648" stroke-miterlimit="10"/>
<path d="M27.6353 147.065L30.5855 193.91" stroke="white" stroke-width="0.385648" stroke-miterlimit="10"/>
<path d="M82.409 147.435H89.289C90.0718 147.435 90.82 147.779 91.329 148.372L92.7367 150.015" stroke="white" stroke-width="0.385648" stroke-miterlimit="10"/>
<path d="M389.852 147.821C389.852 147.821 396.469 129.626 392.331 104.401C392.331 104.401 369.998 102.334 349.324 103.988" stroke="white" stroke-width="0.385648" stroke-miterlimit="10"/>
<path d="M167.988 114.119C167.988 114.119 196.11 104.193 221.747 104.193" stroke="white" stroke-width="0.385648" stroke-miterlimit="10"/>
<path d="M167.78 136.656C167.78 136.656 166.538 150.717 171.501 166.02" stroke="white" stroke-width="0.385648" stroke-miterlimit="10"/>
<path d="M552.167 68.2156H448.782V129.418H552.167V68.2156Z" fill="url(#paint1_radial_113_1304)"/>
<path d="M531.076 92.6155H427.691V153.818H531.076V92.6155Z" fill="#DEF4FF"/>
<path d="M521.415 105.434H442.728C441.046 105.434 439.685 104.073 439.685 102.392V98.1419C439.685 96.4605 441.046 95.0991 442.728 95.0991H521.415C523.097 95.0991 524.458 96.4605 524.458 98.1419V102.392C524.458 104.069 523.097 105.434 521.415 105.434Z" stroke="#0061FE" stroke-width="0.385648" stroke-miterlimit="10"/>
<path d="M470.078 109.36H522.599" stroke="#0061FE" stroke-width="0.385648" stroke-miterlimit="10"/>
<path d="M470.286 114.324H522.804" stroke="#0061FE" stroke-width="0.385648" stroke-miterlimit="10"/>
<path d="M470.286 118.874H522.804" stroke="#0061FE" stroke-width="0.385648" stroke-miterlimit="10"/>
<path d="M439.403 131.281H424.043C422.975 131.281 422.107 130.413 422.107 129.345V117.706C422.107 116.637 422.975 115.77 424.043 115.77H439.403C440.472 115.77 441.339 116.637 441.339 117.706V129.345C441.339 130.413 440.472 131.281 439.403 131.281Z" fill="#EECFF8"/>
<path d="M427.279 123.217L429.816 127.204C429.986 127.47 430.375 127.482 430.557 127.22L435.963 119.495" stroke="#0061FE" stroke-width="0.385648" stroke-miterlimit="10"/>
<path d="M556.718 61.1851H519.911V79.7926H556.718V61.1851Z" fill="#FFDE99"/>
<path d="M519.896 79.7926H556.729V61.1851H519.896V79.7926Z" fill="url(#paint2_radial_113_1304)"/>
<path d="M519.911 61.1851L538.106 70.2825L556.714 61.1851H519.911Z" fill="#FFDE99"/>
<path d="M552.518 72.1837C553.467 70.2323 556.139 69.3531 558.064 70.3596C558.985 70.8417 559.687 71.6592 560.562 72.2184C561.8 73.0129 563.378 73.252 564.797 72.8586C566.212 72.4691 567.446 71.451 568.102 70.1359" stroke="#FA404B" stroke-width="0.385648" stroke-miterlimit="10"/>
<path d="M500.44 98.8167H436.82C435.659 98.8167 434.718 97.8757 434.718 96.7149V88.0957C434.718 86.9349 435.659 85.9939 436.82 85.9939H500.44C501.601 85.9939 502.542 86.9349 502.542 88.0957V96.7149C502.542 97.8757 501.601 98.8167 500.44 98.8167Z" fill="#FFDE99"/>
<path d="M443.407 94.266C444.548 94.266 445.474 93.3404 445.474 92.1989C445.474 91.0574 444.548 90.1318 443.407 90.1318C442.265 90.1318 441.339 91.0574 441.339 92.1989C441.339 93.3404 442.265 94.266 443.407 94.266Z" stroke="#FA404B" stroke-width="0.385648" stroke-miterlimit="10"/>
<path d="M448.987 92.4072H496.341" stroke="#FA404B" stroke-width="0.385648" stroke-miterlimit="10"/>
<path d="M285.021 259.686L283.779 267.129C283.779 267.129 292.876 323.785 304.457 313.445C316.038 303.106 301.978 272.918 301.978 272.918L293.706 262.166L285.021 259.686Z" fill="#6C5CE7"/>
<path d="M291.731 267.009L268.207 276.789C266.517 277.491 265.31 279.015 265.029 280.819C264.022 287.241 262.383 304.078 266.822 330.398C266.822 330.398 270.956 336.6 277.987 291.938C277.987 291.938 283.363 284.082 306.521 279.119C329.683 274.159 291.731 267.009 291.731 267.009Z" fill="#FFDE99"/>
<path d="M291.731 267.009L268.207 276.789C266.517 277.491 265.31 279.015 265.029 280.819C264.022 287.241 262.383 304.078 266.822 330.398C266.822 330.398 270.956 336.6 277.987 291.938C277.987 291.938 283.363 284.082 306.521 279.119C329.683 274.159 291.731 267.009 291.731 267.009Z" fill="url(#paint3_radial_113_1304)"/>
<path d="M237.509 244.761C237.509 244.761 238.23 264.993 238.728 273.94C238.832 275.795 237.794 277.518 236.105 278.294C226.95 282.489 197.949 295.335 186.117 295.335C186.117 295.335 180.46 293.546 218.651 272.509C218.651 272.509 222.422 259.081 219.596 244.761C216.761 230.438 237.509 244.761 237.509 244.761Z" fill="#FFDE99"/>
<path d="M237.509 244.761C237.509 244.761 238.23 264.993 238.728 273.94C238.832 275.795 237.794 277.518 236.105 278.294C226.95 282.489 197.949 295.335 186.117 295.335C186.117 295.335 180.46 293.546 218.651 272.509C218.651 272.509 222.422 259.081 219.596 244.761C216.761 230.438 237.509 244.761 237.509 244.761Z" fill="url(#paint4_radial_113_1304)"/>
<path d="M122.497 195.171L115.698 197.111L115.879 198.892L105.286 203.389C103.303 204.23 101.919 206.065 101.672 208.202C101.618 208.672 101.572 209.162 101.541 209.644H103.06L102.968 209.706C101.873 210.427 101.337 211.792 101.757 213.034C101.869 213.366 102.023 213.624 102.231 213.782L114.638 210.061L125.389 205.51L127.044 203.03L122.497 195.171Z" fill="#FFDE99"/>
<path d="M122.497 195.171L115.698 197.111L115.879 198.892L105.286 203.389C103.303 204.23 101.919 206.065 101.672 208.202C101.618 208.672 101.572 209.162 101.541 209.644H103.06L102.968 209.706C101.873 210.427 101.337 211.792 101.757 213.034C101.869 213.366 102.023 213.624 102.231 213.782L114.638 210.061L125.389 205.51L127.044 203.03L122.497 195.171Z" fill="url(#paint5_radial_113_1304)"/>
<path d="M112.987 190.208L107.611 195.171L108.436 200.547L114.638 207.165C114.638 207.165 116.705 203.856 113.812 200.134C110.916 196.413 112.987 197.655 112.987 197.655L121.259 196V192.691L112.987 190.208Z" fill="#FFDE99"/>
<path d="M112.987 190.208L107.611 195.171L108.436 200.547L114.638 207.165C114.638 207.165 116.705 203.856 113.812 200.134C110.916 196.413 112.987 197.655 112.987 197.655L121.259 196V192.691L112.987 190.208Z" fill="url(#paint6_radial_113_1304)"/>
<path d="M106.99 195.171C110.295 195.171 112.987 197.581 112.987 200.547C112.987 203.512 110.295 205.923 106.99 205.923C103.685 205.923 100.993 203.512 100.993 200.547C100.993 197.585 103.685 195.171 106.99 195.171ZM106.99 192.279C102.081 192.279 98.1009 195.981 98.1009 200.551C98.1009 205.121 102.081 208.823 106.99 208.823C111.899 208.823 115.883 205.121 115.883 200.551C115.883 195.981 111.899 192.279 106.99 192.279Z" fill="#0144B9"/>
<path d="M180.807 179.456C180.807 179.456 140.279 195.996 133.249 195.996L126.631 187.724L109.674 189.378C109.674 189.378 110.916 193.513 120.014 193.929C120.014 193.929 117.946 201.372 124.148 203.856C124.148 203.856 106.365 212.541 102.231 216.675C102.231 216.675 117.117 212.124 123.735 210.473C128.521 209.278 132.007 208.514 134.356 207.558C136.685 206.609 139.099 205.896 141.575 205.468L193.622 196.417C193.626 196.413 194.868 174.08 180.807 179.456Z" fill="#FFDE99"/>
<path d="M180.807 179.456C180.807 179.456 140.279 195.996 133.249 195.996L126.631 187.724L109.674 189.378C109.674 189.378 110.916 193.513 120.014 193.929C120.014 193.929 117.946 201.372 124.148 203.856C124.148 203.856 106.365 212.541 102.231 216.675C102.231 216.675 117.117 212.124 123.735 210.473C130.353 208.819 134.487 207.994 136.554 206.339L193.622 196.413C193.626 196.413 194.868 174.08 180.807 179.456Z" fill="url(#paint7_radial_113_1304)"/>
<path d="M230.432 60.356C230.432 60.356 213.892 80.2053 237.875 108.327C237.875 108.327 241.597 113.29 242.426 119.079C242.426 119.079 274.458 113.537 276.938 104.439C279.417 95.342 254.832 74.4167 254.832 74.4167L248.215 63.6648L234.154 60.356H230.432Z" fill="url(#paint8_radial_113_1304)"/>
<path d="M263.517 106.26C263.517 106.26 272.202 120.733 266.413 127.763H258.558L268.484 144.304L287.092 145.129L295.364 134.377L298.673 116.595L294.122 115.77C294.122 115.77 278.978 110.429 278.901 76.4993L261.041 92.1952L263.517 106.26Z" fill="#FFDE99"/>
<path d="M263.517 106.26C263.517 106.26 272.202 120.733 266.413 127.763H258.558L268.484 144.304L287.092 145.129L295.364 134.377L298.673 116.595L294.122 115.77C294.122 115.77 278.978 110.429 278.901 76.4993L261.041 92.1952L263.517 106.26Z" fill="url(#paint9_radial_113_1304)"/>
<path d="M263.517 106.26C263.517 106.26 272.202 120.733 266.413 127.763H258.558L268.484 144.304L287.092 145.129L295.364 134.377L298.673 116.595L294.122 115.77C294.122 115.77 278.978 110.429 278.901 76.4993L261.041 92.1952L263.517 106.26Z" fill="url(#paint10_radial_113_1304)"/>
<path d="M234.983 61.1851C234.983 61.1851 235.696 102.156 250.347 111.35C252.252 112.546 254.663 112.6 256.672 111.582C261.867 108.951 273.089 102.731 275.923 96.7495C279.645 88.8939 278.82 75.6584 278.82 75.6584L234.983 61.1851Z" fill="#FFDE99"/>
<path d="M305.283 63.6647C295.773 50.0167 281.712 31.4091 270.544 33.8889C261.049 35.9984 240.795 44.3862 234.941 46.8505C233.915 47.2824 233.124 48.1347 232.773 49.1914L232.087 51.2546L231.693 51.1235C229.757 50.4794 227.648 51.4474 226.884 53.3371C223.317 62.1453 215.681 86.8345 231.678 107.494L232.92 107.081C232.92 107.081 224.648 97.5709 225.064 81.8558C225.342 71.3584 229.676 65.4734 232.526 62.7238C233.471 61.8136 235.045 62.4461 235.087 63.7573C235.087 63.7573 246.984 74.4089 259.391 76.4798C271.797 78.5469 275.106 89.7114 275.106 89.7114L276.348 89.2988C276.348 89.2988 274.693 83.9228 269.73 79.3722C264.767 74.8216 263.529 73.9963 263.529 73.9963C263.529 73.9963 270.243 77.1432 274.281 81.8519C281.724 90.5367 284.62 109.561 278.002 114.108C278.002 114.108 286.513 112.789 294.951 109.958C295.618 108.311 296.81 104.05 296.201 95.5H297.026C297.026 95.5 298.106 102.715 296.563 109.399C299.456 108.358 302.271 107.135 304.662 105.724C304.916 104.023 305.159 102.041 305.364 99.7344L305.857 99.8C305.857 99.8 305.761 102.114 305.356 105.303C308.137 103.556 310.254 101.535 311.087 99.2254C314.793 88.89 314.793 77.3128 305.283 63.6647Z" fill="url(#paint11_radial_113_1304)"/>
<path d="M266.822 126.938C266.822 126.938 260.204 126.525 244.489 131.901L181.22 175.734C181.22 175.734 177.086 207.577 191.559 219.983L251.936 185.661L270.544 226.601L326.37 222.467C326.37 222.467 320.994 199.721 323.061 193.52C325.128 187.319 332.988 177.805 332.988 173.671C332.988 173.671 345.394 192.695 361.522 204.272L367.723 171.187C367.723 171.187 338.776 126.525 330.091 123.629C321.407 120.733 305.279 114.944 294.114 115.774C294.114 115.774 288.738 139.757 277.987 140.173C267.239 140.586 266.822 126.938 266.822 126.938Z" fill="#F9C1DA"/>
<path d="M266.822 126.938C266.822 126.938 260.204 126.525 244.489 131.901L181.22 175.734C181.22 175.734 177.086 207.577 191.559 219.983L251.936 185.661L270.544 226.601L326.37 222.467C326.37 222.467 320.994 199.721 323.061 193.52C325.128 187.319 332.988 177.805 332.988 173.671C332.988 173.671 345.394 192.695 361.522 204.272L367.723 171.187C367.723 171.187 338.776 126.525 330.091 123.629C321.407 120.733 305.279 114.944 294.114 115.774C294.114 115.774 288.738 139.757 277.987 140.173C267.239 140.586 266.822 126.938 266.822 126.938Z" fill="url(#paint12_radial_113_1304)"/>
<path d="M266.822 126.938C266.822 126.938 260.204 126.525 244.489 131.901L181.22 175.734C181.22 175.734 177.086 207.577 191.559 219.983L251.936 185.661L270.544 226.601L326.37 222.467C326.37 222.467 320.994 199.721 323.061 193.52C325.128 187.319 332.988 177.805 332.988 173.671C332.988 173.671 345.394 192.695 361.522 204.272L367.723 171.187C367.723 171.187 338.776 126.525 330.091 123.629C321.407 120.733 305.279 114.944 294.114 115.774C294.114 115.774 288.738 139.757 277.987 140.173C267.239 140.586 266.822 126.938 266.822 126.938Z" fill="url(#paint13_radial_113_1304)"/>
<path d="M85.2783 188.97L65.1821 189.394C64.9353 202.637 77.8352 216.262 77.8352 216.262L78.2479 217.504H85.2783H92.4205L92.8408 216.262C92.8408 216.262 105.949 202.637 105.698 189.394L85.2783 188.97Z" fill="#0061FE"/>
<path d="M85.2783 188.97L65.1821 189.394C64.9353 202.637 77.8352 216.262 77.8352 216.262L78.2479 217.504H85.2783H92.4205L92.8408 216.262C92.8408 216.262 105.949 202.637 105.698 189.394L85.2783 188.97Z" fill="url(#paint14_radial_113_1304)"/>
<path d="M332.992 173.667L327.203 167.049C327.203 167.049 327.404 195.8 304.045 201.789C287.917 205.923 281.153 217.396 277.99 226.189L283.779 228.668L326.374 222.467C326.374 222.467 320.998 199.722 323.065 193.52C325.132 187.315 332.992 177.801 332.992 173.667Z" fill="url(#paint15_radial_113_1304)"/>
<path d="M113.812 200.134C112.995 199.085 112.574 198.43 112.389 198.028C112.378 198.021 112.37 198.009 112.358 198.001C111.757 197.832 111.171 197.597 110.546 197.369C109.667 197.049 108.745 196.872 107.835 196.659L108.432 200.551L114.634 207.168C114.641 207.164 116.708 203.856 113.812 200.134Z" fill="#FFDE99"/>
<path d="M278.816 224.121C278.816 224.121 240.771 140.586 227.949 134.798C227.949 134.798 216.368 133.556 210.579 136.452C204.79 139.348 201.069 255.139 201.069 255.139H243.664C243.664 255.139 249.04 269.2 283.779 266.72C283.779 266.72 284.192 260.519 287.913 260.932C291.635 261.344 306.937 310.969 303.628 314.278L426.781 252.127C433.642 248.664 437.73 235.911 435.134 228.676C433.576 224.334 427.576 220.662 422.728 219.991C410.734 218.337 326.166 222.266 326.166 222.266C326.166 222.266 289.363 226.393 278.816 224.121Z" fill="#DEF4FF"/>
<path d="M435.134 228.668C433.576 224.326 427.576 220.655 422.728 219.984C417.56 219.27 398.918 219.594 379.37 220.196C378.19 222.232 377.083 224.314 376.042 226.424C372.513 233.589 369.736 241.109 367.43 248.745C365.089 256.493 363.115 264.379 362.096 272.416C361.557 276.666 361.256 280.943 361.198 285.216L426.785 252.116C433.642 248.656 437.73 235.903 435.134 228.668Z" fill="url(#paint16_radial_113_1304)"/>
<path d="M221.493 188.399C228.809 186.814 235.924 184.334 242.754 181.28C246.907 179.425 250.918 177.35 254.624 174.778C244.462 155.519 233.683 137.386 227.953 134.794C227.953 134.794 216.372 133.552 210.583 136.448C207.91 137.787 205.677 163.189 204.05 190.15C209.9 190.3 215.766 189.641 221.493 188.399Z" fill="url(#paint17_radial_113_1304)"/>
<path d="M326.166 222.259C326.166 222.259 290.894 226.223 279.518 224.253L279.024 224.326L278.904 224.137C278.877 224.129 278.847 224.125 278.82 224.122C278.82 224.122 278.754 223.975 278.627 223.701L245.118 170.983L254.215 254.931H243.463V255.139H243.672C243.672 255.139 249.048 269.2 283.787 266.72C283.787 266.72 284.064 262.586 286.193 261.294C286.374 261.182 286.575 261.094 286.783 261.032L383.037 232.814L357.812 226.613L357.399 224.546L429.353 222.479L326.166 222.259Z" fill="url(#paint18_radial_113_1304)"/>
<path d="M326.166 222.259C326.166 222.259 290.894 226.223 279.518 224.253L279.024 224.326L278.904 224.137C278.877 224.129 278.847 224.125 278.82 224.122C278.82 224.122 278.754 223.975 278.627 223.701L245.118 170.983L254.215 254.931H243.463V255.139H243.672C243.672 255.139 249.048 269.2 283.787 266.72C283.787 266.72 284.064 262.586 286.193 261.294C286.374 261.182 286.575 261.094 286.783 261.032L383.037 232.814L357.812 226.613L357.399 224.546L429.353 222.479L326.166 222.259Z" fill="url(#paint19_radial_113_1304)"/>
<path d="M251.091 99.7269C252.071 98.3849 253.047 97.0467 254.026 95.7046C254.227 95.4308 254.547 95.1184 254.855 95.265C255.048 95.3575 255.122 95.5889 255.176 95.7972C255.511 97.1894 255.654 98.6278 255.596 100.055C255.561 100.919 255.341 101.937 254.539 102.264C253.857 102.546 253.078 102.164 252.518 101.682C251.89 101.146 251.381 100.467 251.034 99.7154" fill="url(#paint20_radial_113_1304)"/>
<path d="M232.114 145.619C238.496 148.237 243.872 159.815 245.114 170.154" stroke="#B0B0F8" stroke-width="0.385648" stroke-miterlimit="10"/>
<path d="M382.852 232.54C392.293 228.229 402.991 226.721 413.257 228.256" stroke="#B0B0F8" stroke-width="0.385648" stroke-miterlimit="10"/>
<path d="M392.246 232.864C396.944 231.703 401.895 231.588 406.639 232.536" stroke="#B0B0F8" stroke-width="0.385648" stroke-miterlimit="10"/>
<path d="M293.154 261.394C301.403 275.991 306.783 292.204 308.892 308.837" stroke="#B0B0F8" stroke-width="0.385648" stroke-miterlimit="10"/>
<path d="M204.096 250.974C204.235 250.974 204.374 250.974 204.513 250.974H249.032" stroke="#B0B0F8" stroke-width="0.385648" stroke-miterlimit="10"/>
<path d="M85.2782 192.691C96.4685 192.691 105.54 191.21 105.54 189.382C105.54 187.555 96.4685 186.073 85.2782 186.073C74.0878 186.073 65.0162 187.555 65.0162 189.382C65.0162 191.21 74.0878 192.691 85.2782 192.691Z" fill="#DEF4FF"/>
<path d="M85.2782 192.691C96.4685 192.691 105.54 191.21 105.54 189.382C105.54 187.555 96.4685 186.073 85.2782 186.073C74.0878 186.073 65.0162 187.555 65.0162 189.382C65.0162 191.21 74.0878 192.691 85.2782 192.691Z" fill="url(#paint21_radial_113_1304)"/>
<path d="M71.1018 188.812C74.8078 188.144 80.1568 187.728 86.1073 187.728C86.8131 187.728 87.5072 187.736 88.1937 187.743" stroke="white" stroke-width="0.385648" stroke-miterlimit="10"/>
<path d="M69.9139 196.135C71.1981 200.624 73.269 204.885 76.011 208.661" stroke="#BDD9FF" stroke-width="0.385648" stroke-miterlimit="10"/>
<path d="M264.875 78.196C249.175 78.628 240.671 83.1053 237.602 85.1338C239.221 93.3713 241.84 101.883 246.059 107.336H257.077C257.077 107.332 285.229 77.6368 264.875 78.196Z" fill="url(#paint22_radial_113_1304)"/>
<path d="M438.759 222.367L285.661 222.606C284.658 222.606 283.845 221.796 283.841 220.793L283.837 219.463C283.837 218.46 284.647 217.647 285.649 217.643L438.748 217.404C439.751 217.404 440.564 218.213 440.568 219.216L440.572 220.547C440.572 221.549 439.762 222.363 438.759 222.367Z" fill="#241921"/>
<path d="M438.759 222.367L347.693 222.51C346.69 222.51 345.876 221.7 345.872 220.697L345.868 219.367C345.868 218.364 346.678 217.55 347.681 217.546L438.748 217.404C439.751 217.404 440.564 218.213 440.568 219.216L440.572 220.547C440.572 221.549 439.762 222.363 438.759 222.367Z" fill="#0061FE"/>
<path d="M461.837 139.622L372.98 139.761C371.78 139.761 370.72 140.532 370.346 141.67L347.06 212.66C346.47 214.457 347.812 216.3 349.702 216.3L438.559 216.162C439.758 216.162 440.819 215.39 441.193 214.253L464.478 143.263C465.065 141.465 463.726 139.618 461.837 139.622Z" fill="#3C2CB4"/>
<path d="M335.398 221.287L328.229 221.298C327.697 221.298 327.265 220.867 327.265 220.334V220.196C327.265 219.663 327.697 219.231 328.229 219.231L335.398 219.22C335.93 219.22 336.362 219.652 336.362 220.184V220.323C336.362 220.851 335.93 221.283 335.398 221.287Z" stroke="#F2F6FF" stroke-width="0.385648" stroke-miterlimit="10"/>
<path d="M434.44 221.337L427.271 221.349C426.739 221.349 426.307 220.917 426.307 220.385V220.246C426.307 219.714 426.739 219.282 427.271 219.282L434.44 219.27C434.972 219.27 435.404 219.702 435.404 220.234V220.373C435.404 220.905 434.972 221.337 434.44 221.337Z" stroke="#F2F6FF" stroke-width="0.385648" stroke-miterlimit="10"/>
<path d="M320.304 221.515L313.135 221.526C312.602 221.526 312.17 221.094 312.17 220.562V220.423C312.17 219.891 312.602 219.459 313.135 219.459L320.304 219.448C320.836 219.448 321.268 219.879 321.268 220.412V220.55C321.268 221.083 320.836 221.515 320.304 221.515Z" stroke="#F2F6FF" stroke-width="0.385648" stroke-miterlimit="10"/>
<path d="M340.978 221.484H340.839C340.307 221.484 339.875 221.052 339.875 220.52V220.381C339.875 219.849 340.307 219.417 340.839 219.417H340.978C341.511 219.417 341.942 219.849 341.942 220.381V220.52C341.942 221.052 341.514 221.484 340.978 221.484Z" stroke="#F2F6FF" stroke-width="0.385648" stroke-miterlimit="10"/>
<path d="M463.468 140.15C463.017 139.819 462.457 139.618 461.837 139.622L372.979 139.761C371.78 139.761 370.72 140.532 370.345 141.67L347.334 211.827L463.468 140.15Z" fill="url(#paint23_radial_113_1304)"/>
<path d="M409.065 181.386C411.629 179.632 412.605 176.593 411.243 174.597C409.878 172.601 406.693 172.404 404.128 174.157C401.56 175.91 400.588 178.949 401.949 180.945C403.315 182.941 406.5 183.138 409.065 181.386Z" fill="#0144B9"/>
<path d="M448.543 145.064L420.449 162.476" stroke="#BDD9FF" stroke-width="0.385648" stroke-miterlimit="10"/>
<path d="M444.617 203.516L449.831 202.637L448.081 195.691L446.777 193.956L444.617 203.516Z" fill="#FFDE99"/>
<path d="M444.617 203.516L449.831 202.637L448.081 195.691L446.777 193.956L444.617 203.516Z" fill="url(#paint24_radial_113_1304)"/>
<path d="M449.253 179.217L444.629 168.939C444.629 168.939 443.217 173.922 444.452 179.614C443.619 177.527 442.867 175.676 442.867 175.676C442.867 175.676 439.697 188.8 442.192 198.727C442.948 201.738 443.572 203.894 444.077 205.445L450.83 184.859L449.253 179.217Z" fill="url(#paint25_radial_113_1304)"/>
<path d="M444.563 168.766C444.563 168.766 443.272 175.283 450.236 185.699L442.836 175.719L442.111 183.339C441.748 187.134 442.635 190.944 444.633 194.191L449.828 202.641L455.022 190.906L455.882 185.692L444.563 168.766Z" fill="#FFDE99"/>
<path d="M444.563 168.766C444.563 168.766 443.272 175.283 450.236 185.699L442.836 175.719L442.111 183.339C441.748 187.134 442.635 190.944 444.633 194.191L449.828 202.641L455.022 190.906L455.882 185.692L444.563 168.766Z" fill="url(#paint26_radial_113_1304)"/>
<path d="M106.994 27.2944C105.073 29.8281 105.151 33.6808 107.175 36.1335C109.512 38.9641 113.754 39.7162 115.96 42.6471C117.642 44.88 117.715 48.1927 116.134 50.4989" stroke="#0061FE" stroke-width="0.385648" stroke-miterlimit="10"/>
<path d="M362.166 60.2828C363.762 60.2828 365.058 58.9878 365.058 57.3904C365.058 55.7931 363.762 54.498 362.166 54.498C360.569 54.498 359.273 55.7931 359.273 57.3904C359.273 58.9878 360.569 60.2828 362.166 60.2828Z" stroke="#0061FE" stroke-width="0.385648" stroke-miterlimit="10"/>
<path d="M420.977 287.044L429.461 295.142" stroke="#0061FE" stroke-width="0.385648" stroke-miterlimit="10"/>
<path d="M514.871 179.012L511.149 180.015L512.148 183.738L515.874 182.736L514.871 179.012Z" stroke="#FA404B" stroke-width="0.385648" stroke-miterlimit="10"/>
<defs>
<linearGradient id="paint0_linear_113_1304" x1="146.513" y1="6.24533" x2="831.815" y2="6.24533" gradientUnits="userSpaceOnUse">
<stop stop-color="#F7F8FC" stop-opacity="0"/>
<stop offset="0.552083" stop-color="#6C5CE7" stop-opacity="0.7"/>
</linearGradient>
<radialGradient id="paint1_radial_113_1304" cx="0" cy="0" r="1" gradientUnits="userSpaceOnUse" gradientTransform="translate(490.332 164.662) scale(125.203 125.203)">
<stop offset="0.131" stop-color="#B0B0F8"/>
<stop offset="0.1759" stop-color="#B7B7F9"/>
<stop offset="0.3876" stop-color="#D3D4FB"/>
<stop offset="0.5977" stop-color="#E8E9FD"/>
<stop offset="0.8034" stop-color="#F4F6FE"/>
<stop offset="1" stop-color="#F8FAFE"/>
</radialGradient>
<radialGradient id="paint2_radial_113_1304" cx="0" cy="0" r="1" gradientUnits="userSpaceOnUse" gradientTransform="translate(549.278 53.0101) rotate(180) scale(47.6661 47.6279)">
<stop stop-color="#FA404B"/>
<stop offset="0.025" stop-color="#FA484F" stop-opacity="0.975"/>
<stop offset="0.1916" stop-color="#FC7565" stop-opacity="0.8084"/>
<stop offset="0.3589" stop-color="#FD9B78" stop-opacity="0.6411"/>
<stop offset="0.5244" stop-color="#FEB886" stop-opacity="0.4756"/>
<stop offset="0.6876" stop-color="#FECD91" stop-opacity="0.3124"/>
<stop offset="0.8474" stop-color="#FFDA97" stop-opacity="0.1526"/>
<stop offset="1" stop-color="#FFDE99" stop-opacity="0"/>
</radialGradient>
<radialGradient id="paint3_radial_113_1304" cx="0" cy="0" r="1" gradientUnits="userSpaceOnUse" gradientTransform="translate(305.904 296.772) scale(76.4775 76.4775)">
<stop stop-color="#FA404B"/>
<stop offset="0.025" stop-color="#FA484F" stop-opacity="0.975"/>
<stop offset="0.1916" stop-color="#FC7565" stop-opacity="0.8084"/>
<stop offset="0.3589" stop-color="#FD9B78" stop-opacity="0.6411"/>
<stop offset="0.5244" stop-color="#FEB886" stop-opacity="0.4756"/>
<stop offset="0.6876" stop-color="#FECD91" stop-opacity="0.3124"/>
<stop offset="0.8474" stop-color="#FFDA97" stop-opacity="0.1526"/>
<stop offset="1" stop-color="#FFDE99" stop-opacity="0"/>
</radialGradient>
<radialGradient id="paint4_radial_113_1304" cx="0" cy="0" r="1" gradientUnits="userSpaceOnUse" gradientTransform="translate(252.774 257.576) scale(69.5944 66.0666)">
<stop stop-color="#FA404B"/>
<stop offset="0.025" stop-color="#FA484F" stop-opacity="0.975"/>
<stop offset="0.1916" stop-color="#FC7565" stop-opacity="0.8084"/>
<stop offset="0.3589" stop-color="#FD9B78" stop-opacity="0.6411"/>
<stop offset="0.5244" stop-color="#FEB886" stop-opacity="0.4756"/>
<stop offset="0.6876" stop-color="#FECD91" stop-opacity="0.3124"/>
<stop offset="0.8474" stop-color="#FFDA97" stop-opacity="0.1526"/>
<stop offset="1" stop-color="#FFDE99" stop-opacity="0"/>
</radialGradient>
<radialGradient id="paint5_radial_113_1304" cx="0" cy="0" r="1" gradientUnits="userSpaceOnUse" gradientTransform="translate(126.539 208.504) scale(26.1031 26.1031)">
<stop stop-color="#FA404B"/>
<stop offset="0.025" stop-color="#FA484F" stop-opacity="0.975"/>
<stop offset="0.1916" stop-color="#FC7565" stop-opacity="0.8084"/>
<stop offset="0.3589" stop-color="#FD9B78" stop-opacity="0.6411"/>
<stop offset="0.5244" stop-color="#FEB886" stop-opacity="0.4756"/>
<stop offset="0.6876" stop-color="#FECD91" stop-opacity="0.3124"/>
<stop offset="0.8474" stop-color="#FFDA97" stop-opacity="0.1526"/>
<stop offset="1" stop-color="#FFDE99" stop-opacity="0"/>
</radialGradient>
<radialGradient id="paint6_radial_113_1304" cx="0" cy="0" r="1" gradientUnits="userSpaceOnUse" gradientTransform="translate(115.237 191.551) scale(7.47209 7.47208)">
<stop stop-color="#FA404B"/>
<stop offset="0.025" stop-color="#FA484F" stop-opacity="0.975"/>
<stop offset="0.1916" stop-color="#FC7565" stop-opacity="0.8084"/>
<stop offset="0.3589" stop-color="#FD9B78" stop-opacity="0.6411"/>
<stop offset="0.5244" stop-color="#FEB886" stop-opacity="0.4756"/>
<stop offset="0.6876" stop-color="#FECD91" stop-opacity="0.3124"/>
<stop offset="0.8474" stop-color="#FFDA97" stop-opacity="0.1526"/>
<stop offset="1" stop-color="#FFDE99" stop-opacity="0"/>
</radialGradient>
<radialGradient id="paint7_radial_113_1304" cx="0" cy="0" r="1" gradientUnits="userSpaceOnUse" gradientTransform="translate(200.388 199.346) scale(69.5223 69.5223)">
<stop stop-color="#FA404B"/>
<stop offset="0.025" stop-color="#FA484F" stop-opacity="0.975"/>
<stop offset="0.1916" stop-color="#FC7565" stop-opacity="0.8084"/>
<stop offset="0.3589" stop-color="#FD9B78" stop-opacity="0.6411"/>
<stop offset="0.5244" stop-color="#FEB886" stop-opacity="0.4756"/>
<stop offset="0.6876" stop-color="#FECD91" stop-opacity="0.3124"/>
<stop offset="0.8474" stop-color="#FFDA97" stop-opacity="0.1526"/>
<stop offset="1" stop-color="#FFDE99" stop-opacity="0"/>
</radialGradient>
<radialGradient id="paint8_radial_113_1304" cx="0" cy="0" r="1" gradientUnits="userSpaceOnUse" gradientTransform="translate(249.492 70.5471) scale(60.1056)">
<stop offset="0.0775" stop-color="#6C5CE7"/>
<stop offset="1" stop-color="#6C5CE7"/>
</radialGradient>
<radialGradient id="paint9_radial_113_1304" cx="0" cy="0" r="1" gradientUnits="userSpaceOnUse" gradientTransform="translate(262.644 105.328) scale(24.2241 24.2241)">
<stop stop-color="#FA404B"/>
<stop offset="0.025" stop-color="#FA484F" stop-opacity="0.975"/>
<stop offset="0.1916" stop-color="#FC7565" stop-opacity="0.8084"/>
<stop offset="0.3589" stop-color="#FD9B78" stop-opacity="0.6411"/>
<stop offset="0.5244" stop-color="#FEB886" stop-opacity="0.4756"/>
<stop offset="0.6876" stop-color="#FECD91" stop-opacity="0.3124"/>
<stop offset="0.8474" stop-color="#FFDA97" stop-opacity="0.1526"/>
<stop offset="1" stop-color="#FFDE99" stop-opacity="0"/>
</radialGradient>
<radialGradient id="paint10_radial_113_1304" cx="0" cy="0" r="1" gradientUnits="userSpaceOnUse" gradientTransform="translate(290.601 106.783) rotate(72.5598) scale(46.1575 28.919)">
<stop stop-color="#FA404B"/>
<stop offset="0.025" stop-color="#FA484F" stop-opacity="0.975"/>
<stop offset="0.1916" stop-color="#FC7565" stop-opacity="0.8084"/>
<stop offset="0.3589" stop-color="#FD9B78" stop-opacity="0.6411"/>
<stop offset="0.5244" stop-color="#FEB886" stop-opacity="0.4756"/>
<stop offset="0.6876" stop-color="#FECD91" stop-opacity="0.3124"/>
<stop offset="0.8474" stop-color="#FFDA97" stop-opacity="0.1526"/>
<stop offset="1" stop-color="#FFDE99" stop-opacity="0"/>
</radialGradient>
<radialGradient id="paint11_radial_113_1304" cx="0" cy="0" r="1" gradientUnits="userSpaceOnUse" gradientTransform="translate(295.672 37.5193) scale(66.0592)">
<stop offset="0.0775" stop-color="#6C5CE7"/>
<stop offset="1" stop-color="#6C5CE7"/>
</radialGradient>
<radialGradient id="paint12_radial_113_1304" cx="0" cy="0" r="1" gradientUnits="userSpaceOnUse" gradientTransform="translate(212.518 232.909) scale(58.4697 58.4697)">
<stop offset="0.0989" stop-color="#FA404B"/>
<stop offset="1" stop-color="#F9C1DA" stop-opacity="0"/>
</radialGradient>
<radialGradient id="paint13_radial_113_1304" cx="0" cy="0" r="1" gradientUnits="userSpaceOnUse" gradientTransform="translate(362.883 136.284) rotate(60.6048) scale(47.6341 30.4551)">
<stop offset="0.0989" stop-color="#6C5CE7"/>
<stop offset="1" stop-color="#6C5CE7"/>
</radialGradient>
<radialGradient id="paint14_radial_113_1304" cx="0" cy="0" r="1" gradientUnits="userSpaceOnUse" gradientTransform="translate(76.1692 182.198) scale(63.0693 63.0693)">
<stop stop-color="#6C5CE7"/>
<stop offset="0.9225" stop-color="#0144B9"/>
</radialGradient>
<radialGradient id="paint15_radial_113_1304" cx="0" cy="0" r="1" gradientUnits="userSpaceOnUse" gradientTransform="translate(342.729 246.208) scale(100.967 100.967)">
<stop offset="0.0989" stop-color="#6C5CE7"/>
<stop offset="1" stop-color="#6C5CE7"/>
</radialGradient>
<radialGradient id="paint16_radial_113_1304" cx="0" cy="0" r="1" gradientUnits="userSpaceOnUse" gradientTransform="translate(438.598 273.682) scale(112.647 112.647)">
<stop stop-color="#F9C1DA"/>
<stop offset="0.1462" stop-color="#F2CEE4" stop-opacity="0.8538"/>
<stop offset="0.4384" stop-color="#E7E3F3" stop-opacity="0.5616"/>
<stop offset="0.7256" stop-color="#E0F0FC" stop-opacity="0.2744"/>
<stop offset="1" stop-color="#DEF4FF" stop-opacity="0"/>
</radialGradient>
<radialGradient id="paint17_radial_113_1304" cx="0" cy="0" r="1" gradientUnits="userSpaceOnUse" gradientTransform="translate(198.927 146.832) scale(63.2475 63.2475)">
<stop stop-color="#F9C1DA"/>
<stop offset="0.1462" stop-color="#F2CEE4" stop-opacity="0.8538"/>
<stop offset="0.4384" stop-color="#E7E3F3" stop-opacity="0.5616"/>
<stop offset="0.7256" stop-color="#E0F0FC" stop-opacity="0.2744"/>
<stop offset="1" stop-color="#DEF4FF" stop-opacity="0"/>
</radialGradient>
<radialGradient id="paint18_radial_113_1304" cx="0" cy="0" r="1" gradientUnits="userSpaceOnUse" gradientTransform="translate(226.401 221.072) scale(70.643 70.643)">
<stop offset="0.1096" stop-color="#BDD9FF"/>
<stop offset="1" stop-color="#DEF4FF" stop-opacity="0"/>
</radialGradient>
<radialGradient id="paint19_radial_113_1304" cx="0" cy="0" r="1" gradientUnits="userSpaceOnUse" gradientTransform="translate(302.383 260.239) rotate(-13.8459) scale(105.706 54.0131)">
<stop offset="0.1096" stop-color="#BDD9FF"/>
<stop offset="1" stop-color="#DEF4FF" stop-opacity="0"/>
</radialGradient>
<radialGradient id="paint20_radial_113_1304" cx="0" cy="0" r="1" gradientUnits="userSpaceOnUse" gradientTransform="translate(256.896 93.1501) scale(20.0471 20.0472)">
<stop stop-color="#FA404B"/>
<stop offset="0.025" stop-color="#FA484F" stop-opacity="0.975"/>
<stop offset="0.1916" stop-color="#FC7565" stop-opacity="0.8084"/>
<stop offset="0.3589" stop-color="#FD9B78" stop-opacity="0.6411"/>
<stop offset="0.5244" stop-color="#FEB886" stop-opacity="0.4756"/>
<stop offset="0.6876" stop-color="#FECD91" stop-opacity="0.3124"/>
<stop offset="0.8474" stop-color="#FFDA97" stop-opacity="0.1526"/>
<stop offset="1" stop-color="#FFDE99" stop-opacity="0"/>
</radialGradient>
<radialGradient id="paint21_radial_113_1304" cx="0" cy="0" r="1" gradientUnits="userSpaceOnUse" gradientTransform="translate(98.821 193.889) scale(22.9733 22.9734)">
<stop stop-color="#BDD9FF"/>
<stop offset="1" stop-color="#DEF4FF"/>
</radialGradient>
<radialGradient id="paint22_radial_113_1304" cx="0" cy="0" r="1" gradientUnits="userSpaceOnUse" gradientTransform="translate(238.823 64.9938) scale(34.1434 34.1434)">
<stop offset="0.0989" stop-color="#FA404B"/>
<stop offset="1" stop-color="#F9C1DA" stop-opacity="0"/>
</radialGradient>
<radialGradient id="paint23_radial_113_1304" cx="0" cy="0" r="1" gradientUnits="userSpaceOnUse" gradientTransform="translate(421.54 113.147) rotate(-0.0889809) scale(91.473 91.4731)">
<stop offset="0.1096" stop-color="#BDD9FF"/>
<stop offset="1" stop-color="#0061FE" stop-opacity="0"/>
</radialGradient>
<radialGradient id="paint24_radial_113_1304" cx="0" cy="0" r="1" gradientUnits="userSpaceOnUse" gradientTransform="translate(451.625 194.646) rotate(-0.0889821) scale(16.7982 16.7985)">
<stop stop-color="#FA404B"/>
<stop offset="0.025" stop-color="#FA484F" stop-opacity="0.975"/>
<stop offset="0.1916" stop-color="#FC7565" stop-opacity="0.8084"/>
<stop offset="0.3589" stop-color="#FD9B78" stop-opacity="0.6411"/>
<stop offset="0.5244" stop-color="#FEB886" stop-opacity="0.4756"/>
<stop offset="0.6876" stop-color="#FECD91" stop-opacity="0.3124"/>
<stop offset="0.8474" stop-color="#FFDA97" stop-opacity="0.1526"/>
<stop offset="1" stop-color="#FFDE99" stop-opacity="0"/>
</radialGradient>
<radialGradient id="paint25_radial_113_1304" cx="0" cy="0" r="1" gradientUnits="userSpaceOnUse" gradientTransform="translate(447.51 179.454) rotate(-0.0889807) scale(32.9028 32.9027)">
<stop offset="0.0989" stop-color="#0144B9"/>
<stop offset="1" stop-color="#0061FE" stop-opacity="0"/>
</radialGradient>
<radialGradient id="paint26_radial_113_1304" cx="0" cy="0" r="1" gradientUnits="userSpaceOnUse" gradientTransform="translate(461.702 190.831) rotate(-0.0889811) scale(21.9702 21.9702)">
<stop stop-color="#FA404B"/>
<stop offset="0.025" stop-color="#FA484F" stop-opacity="0.975"/>
<stop offset="0.1916" stop-color="#FC7565" stop-opacity="0.8084"/>
<stop offset="0.3589" stop-color="#FD9B78" stop-opacity="0.6411"/>
<stop offset="0.5244" stop-color="#FEB886" stop-opacity="0.4756"/>
<stop offset="0.6876" stop-color="#FECD91" stop-opacity="0.3124"/>
<stop offset="0.8474" stop-color="#FFDA97" stop-opacity="0.1526"/>
<stop offset="1" stop-color="#FFDE99" stop-opacity="0"/>
</radialGradient>
</defs>
</svg>
