<svg width="40" height="34" viewBox="0 0 40 34" fill="none" xmlns="http://www.w3.org/2000/svg">
<path d="M20.0001 1.37681C23.407 1.37681 26.1784 3.73257 26.1784 6.62844V8.91203C26.1784 11.8079 23.407 14.1637 20.0001 14.1637C16.5931 14.1637 13.8217 11.8079 13.8217 8.91203V6.62844C13.8217 3.73257 16.5931 1.37681 20.0001 1.37681ZM20.0001 0.260864C15.8798 0.260864 12.5088 3.12624 12.5088 6.62844V8.91203C12.5088 12.4142 15.8798 15.2796 20.0001 15.2796C24.1203 15.2796 27.4913 12.4142 27.4913 8.91203V6.62844C27.4913 3.12624 24.1203 0.260864 20.0001 0.260864Z" fill="white"/>
<path d="M24.4173 17.3147C29.3087 18.1003 32.9497 21.7997 32.9497 26.0566V32.6232H7.05018V26.0566C7.05018 21.7997 10.6912 18.1003 15.5826 17.3147C16.979 17.8686 18.463 18.1494 19.9999 18.1494C21.5369 18.1494 23.0209 17.8686 24.4173 17.3147ZM24.2182 16.1545C22.9508 16.7125 21.5185 17.0335 19.9999 17.0335C18.4814 17.0335 17.049 16.7125 15.7817 16.1545C10.1179 16.8728 5.7373 21.0505 5.7373 26.0562V32.6429C5.7373 33.2459 6.3176 33.7388 7.02655 33.7388H32.9733C33.6827 33.7388 34.2626 33.2455 34.2626 32.6429V26.0566C34.2626 21.0505 29.882 16.8731 24.2182 16.1545Z" fill="white"/>
</svg>
