<svg width="34" height="34" viewBox="0 0 34 34" fill="none" xmlns="http://www.w3.org/2000/svg">
<path d="M1.64555 0H32.3545C33.2633 0 34 0.736736 34 1.64555V32.3545C34 33.2633 33.2633 34 32.3545 34H1.64555C0.736736 34 0 33.2633 0 32.3545V1.64555C0 0.736736 0.736736 0 1.64555 0Z" fill="white"/>
<path d="M7.70296 15.543C7.73344 17.9992 8.72272 20.3463 10.4597 22.0832C12.1966 23.8202 14.5436 24.8094 16.9998 24.8399C22.133 24.9249 26.2164 20.5454 26.2967 15.543C26.3093 14.7767 27.4993 14.7754 27.4867 15.543C27.4513 18.3134 26.3351 20.9604 24.3761 22.9197C22.4171 24.8789 19.7702 25.9954 16.9998 26.0312C11.2165 26.1269 6.60328 21.1836 6.50765 15.5391C6.49503 14.7714 7.68504 14.7727 7.69765 15.5391L7.70296 15.543Z" fill="#6C5CE7"/>
<path d="M19.2135 10.3335C19.213 10.8018 19.3513 11.2597 19.6111 11.6493C19.8708 12.0389 20.2403 12.3428 20.6728 12.5224C21.1052 12.702 21.5812 12.7494 22.0406 12.6584C22.5 12.5675 22.922 12.3424 23.2534 12.0115C23.5848 11.6807 23.8107 11.259 23.9024 10.7998C23.9941 10.3406 23.9476 9.86447 23.7687 9.43171C23.5898 8.99895 23.2865 8.62897 22.8973 8.36856C22.5082 8.10815 22.0505 7.96901 21.5822 7.96875C21.2713 7.96866 20.9635 8.02982 20.6763 8.14872C20.3891 8.26761 20.1281 8.44193 19.9082 8.66171C19.6884 8.88149 19.514 9.14242 19.395 9.42961C19.276 9.7168 19.2148 10.0246 19.2148 10.3355L19.2135 10.3335Z" fill="#6C5CE7"/>
<path d="M10.2623 10.3335C10.2618 10.8018 10.4002 11.2598 10.66 11.6494C10.9198 12.0391 11.2894 12.343 11.7219 12.5225C12.1544 12.7021 12.6305 12.7494 13.0899 12.6584C13.5493 12.5673 13.9714 12.342 14.3027 12.0111C14.6341 11.6801 14.8598 11.2583 14.9514 10.799C15.0429 10.3397 14.9962 9.86353 14.8171 9.43079C14.638 8.99805 14.3346 8.62816 13.9452 8.36791C13.5558 8.10766 13.098 7.96875 12.6297 7.96875C12.0019 7.96875 11.3999 8.21808 10.9559 8.66191C10.512 9.10573 10.2625 9.70771 10.2623 10.3355V10.3335Z" fill="#6C5CE7"/>
</svg>
