<svg width="469" height="286" viewBox="0 0 469 286" fill="none" xmlns="http://www.w3.org/2000/svg">
<path d="M468.521 100.113H409.356L374.631 172.14L332.827 179.215L334.115 195.506L419.646 202.153L422.335 199.685L468.521 100.113Z" stroke="#6C5CE7" stroke-opacity="0.39" stroke-width="0.385417" stroke-miterlimit="10"/>
<path d="M468.521 100.113H409.356L374.631 172.14L332.827 179.215L334.115 195.506L419.646 202.153L422.335 199.685L468.521 100.113Z" fill="url(#paint0_radial_109_115)"/>
<path d="M353.745 204.636L343.14 270.077C342.878 271.579 341.574 272.678 340.051 272.678C338.399 272.678 337.03 271.398 336.921 269.75L332.403 202.363" stroke="#6C5CE7" stroke-opacity="0.39" stroke-width="0.385417" stroke-miterlimit="10"/>
<path d="M461.47 115.318L432.072 269.358C431.704 271.284 430.02 272.678 428.062 272.678C426.055 272.678 424.346 271.22 424.027 269.241L414.033 206.05" stroke="#6C5CE7" stroke-opacity="0.39" stroke-width="0.385417" stroke-miterlimit="10"/>
<path d="M405.714 201.079L393.732 270.077C393.47 271.579 392.165 272.678 390.643 272.678C388.991 272.678 387.622 271.398 387.513 269.75L382.994 202.363" stroke="#6C5CE7" stroke-opacity="0.39" stroke-width="0.385417" stroke-miterlimit="10"/>
<path d="M411.569 193.979H336.901V202.553H419.646V202.056C419.646 197.598 416.031 193.979 411.569 193.979Z" fill="#6C5CE7" fill-opacity="0.39"/>
<path d="M421.79 200.865L468.521 100.113C463.086 99.8548 458.042 102.936 455.793 107.891L419.997 186.787C418.418 190.268 418.495 194.274 420.203 197.695L421.79 200.865Z" fill="#6C5CE7" fill-opacity="0.39"/>
<path d="M286.309 160.563L331.756 241.167C331.756 241.167 354.908 237.738 360.053 222.304C360.053 222.304 338.403 189.505 334.543 184.36C330.682 179.215 320.393 161.637 320.393 161.637L295.097 159.921L286.309 160.563Z" fill="#FB8F8F"/>
<path d="M286.309 160.563L331.756 241.167C331.756 241.167 354.908 237.738 360.053 222.304C360.053 222.304 338.403 189.505 334.543 184.36C330.682 179.215 320.393 161.637 320.393 161.637L295.097 159.921L286.309 160.563Z" fill="url(#paint1_radial_109_115)"/>
<path d="M330.468 225.732C330.468 225.732 328.752 256.173 327.896 259.174C327.48 260.623 327.969 262.477 328.34 264.391C328.938 267.464 327.597 270.586 324.952 272.258C322.913 273.546 319.714 274.58 316.318 276.32C310.564 279.268 303.787 282.87 297.778 283.165C297.209 283.193 296.914 282.495 297.338 282.111C300.536 279.212 309.78 270.994 318.462 264.742C318.462 264.742 318.462 229.585 317.174 227.013C315.894 224.444 330.468 225.732 330.468 225.732Z" fill="#FFDE99"/>
<path d="M353.846 231.422C353.846 231.422 362.197 245.027 366.058 248.456C369.918 251.885 370.774 254.029 363.913 265.179C359.152 272.916 354.581 279.494 350.377 281.659C349.759 281.978 349.097 281.316 349.4 280.69C350.195 279.05 351.488 275.937 353.196 270.323C356.196 260.462 357.912 257.461 355.768 253.601C353.624 249.74 344.093 237.472 344.093 237.472C344.093 237.472 350.639 234.54 353.846 231.422Z" fill="#FFDE99"/>
<path d="M405.068 154.134C405.068 154.134 417.073 170.856 408.496 183.718C399.919 196.58 345.903 192.291 337.325 183.718L347.187 228.305C347.187 228.305 318.462 236.45 305.172 229.161V158.418H358.337L361.337 154.99L404.212 154.134" fill="#FBFBFB"/>
<path d="M405.068 154.134H404.211L395.687 154.303L394.81 154.529C394.81 154.529 404.212 179.853 379.344 181.142C354.476 182.43 333.897 169.996 333.897 169.996L338.593 189.448L337.325 183.714C345.899 192.287 399.919 196.576 408.496 183.714C417.073 170.852 405.068 154.134 405.068 154.134Z" fill="url(#paint2_radial_109_115)"/>
<path d="M385.502 191.56C384.109 188.035 382.582 184.554 381.367 180.976C380.717 181.049 380.046 181.109 379.344 181.146C354.476 182.434 333.897 170 333.897 170L338.593 189.452L337.325 183.718C342.789 189.174 366.659 192.893 385.502 191.56Z" fill="url(#paint3_radial_109_115)"/>
<path d="M362.625 120.692C362.625 120.692 358.336 132.27 354.052 131.838C349.763 131.41 324.899 98.3969 322.327 98.3969C319.755 98.3969 315.894 97.5408 315.894 97.5408L306.032 92.396V90.6797C306.032 90.6797 297.459 89.3915 296.599 87.2512H321.895C321.895 87.2512 328.756 91.1118 329.612 93.2521L353.62 115.119L357.262 105.472C357.266 105.472 366.696 112.329 362.625 120.692Z" fill="#FFDE99"/>
<path d="M325.004 100.57C326.599 97.989 328.001 95.2995 329.115 92.4768C327.306 90.2921 321.895 87.2512 321.895 87.2512H296.599C297.455 89.3956 306.032 90.6797 306.032 90.6797V92.396L315.894 97.5408C315.894 97.5408 319.755 98.3969 322.327 98.3969C322.727 98.3969 323.676 99.2046 325.004 100.57Z" fill="url(#paint4_radial_109_115)"/>
<path d="M320.607 88.5356H309.029C309.029 88.5356 309.029 90.68 315.89 91.5361C315.89 91.5361 319.319 94.9646 323.179 94.1085C327.04 93.2524 320.607 88.5356 320.607 88.5356Z" fill="url(#paint5_radial_109_115)"/>
<path d="M306.032 89.8239L304.264 91.2373C304.037 91.419 303.949 91.7219 304.042 91.9965L304.316 92.8243L303.985 94.48C303.924 94.7829 304.021 95.0979 304.239 95.32L305.172 95.8247L304.987 97.0039C304.857 97.5168 305.201 98.0297 305.726 98.1024C308.241 98.4537 314.343 98.5627 315.034 99.2533C315.034 99.2533 315.462 97.9651 314.606 97.1089H315.894C315.894 97.1089 316.75 95.3927 314.606 94.5365H315.894C315.894 94.5365 318.038 91.9641 308.605 90.6759C304.167 90.0742 306.032 89.8239 306.032 89.8239Z" fill="#FFDE99"/>
<path d="M362.726 112.224L356.729 107.839H356.37L353.62 115.12L353.143 114.688L353.979 115.511C355.55 117.058 356.507 119.122 356.665 121.322C356.883 124.343 356.645 128.075 354.048 127.554C351.496 127.045 343.92 120.753 338.214 115.746C345.071 123.786 351.972 131.632 354.048 131.838C358.337 132.266 362.621 120.693 362.621 120.693C364.148 117.567 363.78 114.651 362.726 112.224Z" fill="url(#paint6_radial_109_115)"/>
<path d="M356.144 22.7598C356.144 22.7598 353.62 17.3687 349.763 20.3691C345.903 23.3696 342.046 38.8039 347.619 45.2369C353.192 51.6699 349.763 61.0994 344.618 67.1043C339.474 73.1052 352.336 75.2495 357.908 73.1052C363.481 70.9609 371.198 76.1057 372.059 75.6776C372.915 75.2495 379.38 58.3412 379.38 58.3412L378.213 40.1083L356.144 22.7598Z" fill="#F9C1DA"/>
<path d="M356.144 22.7598C356.144 22.7598 353.62 17.3687 349.763 20.3691C345.903 23.3696 342.046 38.8039 347.619 45.2369C353.192 51.6699 349.763 61.0994 344.618 67.1043C339.474 73.1052 352.336 75.2495 357.908 73.1052C363.481 70.9609 371.198 76.1057 372.059 75.6776C372.915 75.2495 379.38 58.3412 379.38 58.3412L378.213 40.1083L356.144 22.7598Z" fill="url(#paint7_radial_109_115)"/>
<path d="M365.198 60.2392C365.198 60.2392 368.198 64.0998 365.198 75.2455C362.197 86.3912 357.052 91.536 354.908 97.969C352.764 104.402 384.06 98.8251 384.06 98.8251L394.778 80.8184L389.205 75.6736C389.205 75.6736 381.916 76.1016 381.06 72.2451C380.204 68.3844 378.06 57.2388 379.344 47.8053C380.632 38.3719 364.337 59.8111 364.337 59.8111L365.198 60.2392Z" fill="#FFDE99"/>
<path d="M361.401 85.208C361.401 85.208 351.475 100.541 351.475 103.97C351.475 107.398 364.765 124.121 365.193 131.838C365.621 139.555 360.049 155.418 360.049 155.418C360.049 155.418 389.201 165.707 406.78 154.562C406.78 154.562 400.993 145.774 405.278 138.913C409.566 132.052 422 135.913 422 135.913C422 135.913 424.572 136.341 427.145 134.629C429.717 132.912 427.145 129.912 427.145 129.912C427.145 129.912 428.861 130.34 426.717 125.623C424.572 120.906 404.421 80.1762 396.276 78.0319C388.131 75.8876 383.414 75.8876 383.414 75.8876C383.414 75.8876 368.408 94.7504 361.547 93.0382C356.257 91.7136 361.401 85.208 361.401 85.208Z" fill="#6C5CE7"/>
<path d="M381.08 78.678C384.432 80.3983 391.281 82.8738 398.869 79.5947C397.916 78.7749 397.048 78.2338 396.28 78.0319C388.135 75.8876 383.418 75.8876 383.418 75.8876C383.418 75.8876 382.526 77.0102 381.08 78.678Z" fill="url(#paint8_radial_109_115)"/>
<path d="M406.76 137.193L385.345 137.839L366.91 140.412L368.198 143.84C368.198 143.84 376.792 147.378 388.155 147.664C393.938 147.81 398.845 151.86 400.254 157.469C400.266 157.518 400.278 157.566 400.29 157.611C402.568 156.847 404.753 155.846 406.784 154.562C406.784 154.562 400.997 145.774 405.282 138.913C405.706 138.239 406.203 137.674 406.76 137.193Z" fill="url(#paint9_radial_109_115)"/>
<path d="M365.198 60.2392C365.198 60.2392 368.198 64.0998 365.198 75.2455C362.197 86.3912 357.052 91.536 354.908 97.969C352.764 104.402 384.06 98.8251 384.06 98.8251L394.778 80.8184L389.205 75.6736C389.205 75.6736 381.916 76.1016 381.06 72.2451C380.204 68.3844 378.06 57.2388 379.344 47.8053C380.632 38.3719 364.337 59.8111 364.337 59.8111L365.198 60.2392Z" fill="url(#paint10_radial_109_115)"/>
<path d="M354.908 26.3701C354.908 26.7982 344.465 63.8293 353.192 65.8121C362.625 67.9565 370.342 62.3836 374.199 59.3791C378.059 56.3787 381.06 48.6615 381.06 48.6615L375.487 31.9389L362.625 22.9335L356.192 22.0774L354.908 26.3701Z" fill="#FFDE99"/>
<path d="M368.198 42.2325C360.174 39.224 353.971 40.1245 351.633 40.6697C350.268 47.7327 349.17 55.8052 349.997 60.8733L354.904 61.0954C354.908 61.0954 378.488 46.0891 368.198 42.2325Z" fill="url(#paint11_radial_109_115)"/>
<path d="M355.53 24.2903C355.53 24.2903 359.625 23.3656 360.909 27.2262C362.197 31.0868 368.626 52.522 377.199 51.6659L378.916 52.522C378.916 52.522 369.482 76.5297 382.344 78.246C395.206 79.9622 393.062 74.8175 402.067 74.8175C411.073 74.8175 420.502 66.2442 413.213 58.955C405.924 51.6659 401.207 50.3817 399.063 39.232C396.918 28.0863 383.2 16.0805 376.767 18.2248L373.339 18.6529L364.765 19.0809C364.765 19.0809 365.21 16.5812 360.049 17.7927C352.764 19.509 355.53 24.2903 355.53 24.2903Z" fill="#F9C1DA"/>
<path d="M355.53 24.2903C355.53 24.2903 359.625 23.3656 360.909 27.2262C362.197 31.0868 368.626 52.522 377.199 51.6659L378.916 52.522C378.916 52.522 369.482 76.5297 382.344 78.246C395.206 79.9622 393.062 74.8175 402.067 74.8175C411.073 74.8175 420.502 66.2442 413.213 58.955C405.924 51.6659 401.207 50.3817 399.063 39.232C396.918 28.0863 383.2 16.0805 376.767 18.2248L373.339 18.6529L364.765 19.0809C364.765 19.0809 365.21 16.5812 360.049 17.7927C352.764 19.509 355.53 24.2903 355.53 24.2903Z" fill="url(#paint12_radial_109_115)"/>
<path d="M380.846 48.0193C380.846 48.0193 382.99 57.4527 381.702 66.4541C381.702 66.4541 381.407 73.933 385.413 74.9103" stroke="#FB8F8F" stroke-width="0.385417" stroke-miterlimit="10"/>
<path d="M356.144 22.7598C356.144 22.7598 360.267 16.2945 363.695 24.8678C367.124 33.4411 368.412 43.3026 373.985 44.5909" stroke="#FB8F8F" stroke-width="0.385417" stroke-miterlimit="10"/>
<path d="M380.204 54.6663C385.886 54.6663 390.493 50.0594 390.493 44.3767C390.493 38.694 385.886 34.0872 380.204 34.0872C374.522 34.0872 369.914 38.694 369.914 44.3767C369.914 50.0594 374.522 54.6663 380.204 54.6663Z" fill="#241921"/>
<path d="M378.702 54.8804C384.383 54.8804 388.991 50.2735 388.991 44.5908C388.991 38.9081 384.383 34.3013 378.702 34.3013C373.02 34.3013 368.412 38.9081 368.412 44.5908C368.412 50.2735 373.02 54.8804 378.702 54.8804Z" stroke="#241921" stroke-width="0.385417" stroke-miterlimit="10"/>
<path d="M377.426 35.3512C376.933 29.9439 374.199 24.9243 369.922 21.5765L366.837 19.2424C366.567 19.0365 366.696 18.6084 367.035 18.5842L370.916 18.3136C372.043 18.2369 373.145 18.6326 373.981 19.3959C378.37 23.4221 381.157 28.9989 381.698 34.9635L377.426 35.3512Z" fill="#241921"/>
<path d="M374.199 50.8057L369.595 54.7511C366.756 57.1862 363.138 58.5228 359.399 58.5228H353.192" stroke="#241921" stroke-width="0.385417" stroke-miterlimit="10"/>
<path d="M354.908 60.6672C356.329 60.6672 357.48 59.5155 357.48 58.0949C357.48 56.6742 356.329 55.5225 354.908 55.5225C353.486 55.5225 352.336 56.6742 352.336 58.0949C352.336 59.5155 353.486 60.6672 354.908 60.6672Z" fill="#241921"/>
<path d="M407.212 122.405C399.923 122.833 403.351 119.832 402.495 115.972C401.639 112.111 397.778 110.827 396.922 104.826C396.066 98.825 396.066 95.3925 396.066 95.3925C396.066 95.3925 384.06 99.2531 382.348 111.683C381.044 121.141 367.342 122.659 359.722 118.883C362.528 123.685 365.016 128.567 365.197 131.834C365.258 132.912 365.197 134.156 365.052 135.489L371.626 136.551L385.345 139.123L400.779 136.123L406.352 128.405C406.352 128.405 402.063 128.405 404.207 125.405C404.207 125.405 410.64 122.405 415.785 125.405C420.934 128.41 414.501 121.977 407.212 122.405Z" fill="url(#paint13_radial_109_115)"/>
<path d="M407.212 122.405C399.923 122.833 403.351 119.832 402.495 115.972C401.639 112.111 397.779 110.827 396.922 104.826C396.066 98.825 396.066 95.3925 396.066 95.3925C396.066 95.3925 395.998 95.4248 395.86 95.4894C392.916 96.923 390.53 99.2894 389.023 102.197C388.026 104.119 387.077 106.074 385.991 108.012C384.363 110.916 382.247 113.48 379.154 114.845C376.743 115.907 365.004 120.523 359.726 118.883C362.532 123.685 365.02 128.567 365.202 131.834C365.262 132.912 365.202 134.156 365.056 135.489L371.631 136.551L385.349 139.123L400.783 136.123L406.356 128.405C406.356 128.405 402.067 128.405 404.212 125.405C404.212 125.405 410.645 122.405 415.789 125.405C420.934 128.41 414.501 121.977 407.212 122.405Z" fill="#6C5CE7"/>
<path d="M361.454 141.583L367.766 146.845C367.766 146.845 368.622 146.416 368.194 144.7L369.05 145.128C369.05 145.128 369.906 143.844 369.478 142.556H370.766L369.478 139.555L365.617 137.839L364.329 139.123L361.454 141.583Z" fill="#FFDE99"/>
<path d="M361.454 141.583L367.766 146.845C367.766 146.845 368.622 146.416 368.194 144.7L369.05 145.128C369.05 145.128 369.906 143.844 369.478 142.556H370.766L369.478 139.555L365.617 137.839L364.329 139.123L361.454 141.583Z" fill="url(#paint14_radial_109_115)"/>
<path d="M423.519 131.834C424.476 132.86 424.136 134.524 422.856 135.101C417.671 137.439 404.724 142.653 391.782 142.984C379.925 143.287 374.966 143.594 373.084 143.743C372.406 143.8 371.727 143.622 371.162 143.242L366.914 140.412H364.769C364.769 140.412 362.625 142.128 362.625 142.556L360.053 140.412L368.723 131.346C369.175 130.873 369.882 130.752 370.459 131.055C372.422 132.085 375.483 135.695 377.627 136.551C377.627 136.551 388.583 136.656 406.352 128.406C414.864 124.456 420.789 128.906 423.519 131.834Z" fill="#FFDE99"/>
<path d="M423.519 131.834C424.476 132.86 424.136 134.524 422.856 135.101C417.671 137.439 404.724 142.653 391.782 142.984C379.925 143.287 374.966 143.594 373.084 143.743C372.406 143.8 371.727 143.622 371.162 143.242L366.914 140.412H364.769C364.769 140.412 362.625 142.128 362.625 142.556L360.053 140.412L368.723 131.346C369.175 130.873 369.882 130.752 370.459 131.055C372.422 132.085 375.483 135.695 377.627 136.551C377.627 136.551 388.583 136.656 406.352 128.406C414.864 124.456 420.789 128.906 423.519 131.834Z" fill="url(#paint15_radial_109_115)"/>
<path d="M309.033 167.852V222.3" stroke="#6C5CE7" stroke-opacity="0.39" stroke-width="0.385417" stroke-miterlimit="10"/>
<path d="M316.108 228.519C316.108 228.519 330.258 228.947 342.26 223.374" stroke="#6C5CE7" stroke-opacity="0.52" stroke-width="0.385417" stroke-miterlimit="10"/>
<path d="M333.687 238.38C333.687 238.38 351.694 234.52 356.41 223.374" stroke="#6C5CE7" stroke-opacity="0.41" stroke-width="0.385417" stroke-miterlimit="10"/>
<path d="M367.128 113.189C367.128 113.189 372.273 116.618 379.562 110.189" stroke="#F9C1DA" stroke-width="0.385417" stroke-miterlimit="10"/>
<path d="M379.558 66.0261C379.558 66.0261 376.985 74.1714 382.986 75.8876" stroke="#FB8F8F" stroke-width="0.385417" stroke-miterlimit="10"/>
<path d="M396.708 73.3152C396.708 73.3152 399.281 72.027 402.281 72.4591C405.282 72.8871 409.57 72.031 410.855 68.1704" stroke="#FB8F8F" stroke-width="0.385417" stroke-miterlimit="10"/>
<path d="M384.868 51.5729C387.222 50.0424 388.777 47.3933 388.777 44.3767C388.777 43.2621 388.563 42.196 388.176 41.2147" stroke="#6C5CE7" stroke-opacity="0.39" stroke-width="0.385417" stroke-miterlimit="10"/>
<path d="M414.033 206.05L410.907 186.286C409.966 180.342 404.842 175.965 398.824 175.965H368.8C362.799 175.965 357.686 180.318 356.725 186.238L353.745 204.636" stroke="#6C5CE7" stroke-opacity="0.39" stroke-width="0.385417" stroke-miterlimit="10"/>
<path d="M279.638 101.393H241.097V120.878H279.638V101.393Z" fill="#FFDE99"/>
<path d="M241.081 120.878H279.65V101.393H241.081V120.878Z" fill="url(#paint16_radial_109_115)"/>
<path d="M241.097 101.393L260.149 110.92L279.634 101.393H241.097Z" fill="#FFDE99"/>
<path d="M232.838 115.738C233.832 113.694 236.63 112.773 238.645 113.827C239.611 114.332 240.346 115.188 241.262 115.774C242.559 116.606 244.21 116.856 245.696 116.444C247.178 116.036 248.471 114.97 249.157 113.593" stroke="#6C5CE7" stroke-width="0.385417" stroke-miterlimit="10"/>
<path d="M305.693 6.55811H247.542V42.4989H305.693V6.55811Z" fill="url(#paint17_radial_109_115)"/>
<path d="M276.973 65.5173H224.572C222.763 65.5173 221.293 64.0514 221.293 62.2382V25.1788C221.293 23.3696 222.759 21.8997 224.572 21.8997H276.977C278.786 21.8997 280.256 23.3656 280.256 25.1788V62.2382C280.252 64.0514 278.786 65.5173 276.973 65.5173Z" stroke="#6C5CE7" stroke-opacity="0.39" stroke-width="0.385417" stroke-miterlimit="10"/>
<path d="M279.396 62.2382H226.995C225.186 62.2382 223.716 60.7723 223.716 58.9591V21.8997C223.716 20.0905 225.182 18.6206 226.995 18.6206H279.4C281.209 18.6206 282.679 20.0865 282.679 21.8997V58.9591C282.675 60.7683 281.209 62.2382 279.396 62.2382Z" fill="#6C5CE7" fill-opacity="0.39"/>
<path d="M279.396 18.6246H271.303C256.684 33.1261 242.114 47.6802 227.548 62.2382H279.396C281.205 62.2382 282.675 60.7723 282.675 58.9591V21.8997C282.675 20.0905 281.209 18.6246 279.396 18.6246Z" fill="url(#paint18_radial_109_115)"/>
<path d="M255.279 48.7098H238.997C237.47 48.7098 236.235 47.4741 236.235 45.9476V34.915C236.235 33.3885 237.47 32.1528 238.997 32.1528H255.279C256.806 32.1528 258.041 33.3885 258.041 34.915V45.9476C258.041 47.4701 256.806 48.7098 255.279 48.7098Z" fill="white"/>
<path d="M260.061 37.2007V40.0275V40.8352V43.662L270.156 49.3156V40.8352V40.0275V31.5471L260.061 37.2007Z" fill="white"/>
<path d="M188.785 48.7583C181.871 48.7583 176.266 54.3635 176.266 61.277C176.266 64.6692 177.619 67.7464 179.807 69.9997L177.074 72.7336H183.741C185.283 73.4161 186.992 73.7957 188.789 73.7957C195.702 73.7957 201.307 68.1906 201.307 61.277C201.307 54.3635 195.698 48.7583 188.785 48.7583Z" fill="#6C5CE7"/>
<path d="M202.163 68.0654C203.407 66.119 204.13 63.8091 204.13 61.3255C204.13 58.7329 203.343 56.3261 201.994 54.3271" stroke="#6C5CE7" stroke-width="0.385417" stroke-miterlimit="10"/>
<path d="M204.587 68.0654C205.83 66.119 206.553 63.8091 206.553 61.3255C206.553 58.7329 205.766 56.3261 204.417 54.3271" stroke="#6C5CE7" stroke-width="0.385417" stroke-miterlimit="10"/>
<path d="M183.131 62.8923C184.023 62.8923 184.747 62.169 184.747 61.2769C184.747 60.3849 184.023 59.6616 183.131 59.6616C182.239 59.6616 181.516 60.3849 181.516 61.2769C181.516 62.169 182.239 62.8923 183.131 62.8923Z" fill="white"/>
<path d="M188.785 62.8923C189.677 62.8923 190.4 62.169 190.4 61.2769C190.4 60.3849 189.677 59.6616 188.785 59.6616C187.893 59.6616 187.169 60.3849 187.169 61.2769C187.169 62.169 187.893 62.8923 188.785 62.8923Z" fill="white"/>
<path d="M194.438 62.8923C195.33 62.8923 196.054 62.169 196.054 61.2769C196.054 60.3849 195.33 59.6616 194.438 59.6616C193.546 59.6616 192.823 60.3849 192.823 61.2769C192.823 62.169 193.546 62.8923 194.438 62.8923Z" fill="white"/>
<path d="M280.858 73.3475C286.322 73.3475 290.752 77.7048 290.752 83.0839C290.752 85.7209 289.681 88.1156 287.953 89.8682L290.113 91.9964H284.843C283.624 92.5254 282.275 92.8242 280.854 92.8242C275.39 92.8242 270.96 88.4669 270.96 83.0879C270.96 77.7089 275.394 73.3475 280.858 73.3475Z" fill="#6C5CE7"/>
<path d="M285.324 84.3397C286.031 84.3397 286.6 83.7776 286.6 83.0838C286.6 82.39 286.031 81.8279 285.324 81.8279C284.622 81.8279 284.048 82.39 284.048 83.0838C284.048 83.7776 284.622 84.3397 285.324 84.3397Z" fill="white"/>
<path d="M280.858 84.3397C281.564 84.3397 282.134 83.7776 282.134 83.0838C282.134 82.39 281.564 81.8279 280.858 81.8279C280.155 81.8279 279.582 82.39 279.582 83.0838C279.582 83.7776 280.155 84.3397 280.858 84.3397Z" fill="white"/>
<path d="M276.391 84.3397C277.098 84.3397 277.667 83.7776 277.667 83.0838C277.667 82.39 277.098 81.8279 276.391 81.8279C275.685 81.8279 275.115 82.39 275.115 83.0838C275.115 83.7776 275.685 84.3397 276.391 84.3397Z" fill="white"/>
<path d="M244.311 11.4042V3.73145H250.772" stroke="#6C5CE7" stroke-opacity="0.39" stroke-width="0.385417" stroke-miterlimit="10"/>
<path d="M300.645 4.33716H308.318V10.7984" stroke="#6C5CE7" stroke-opacity="0.39" stroke-width="0.385417" stroke-miterlimit="10"/>
<path d="M245.927 77.6322H255.618" stroke="#6C5CE7" stroke-width="0.385417" stroke-miterlimit="10"/>
<path d="M245.927 79.4495H255.618" stroke="#6C5CE7" stroke-width="0.385417" stroke-miterlimit="10"/>
<path d="M245.927 81.2667H255.618" stroke="#6C5CE7" stroke-width="0.385417" stroke-miterlimit="10"/>
<path d="M222.093 16.238H208.019C206.901 16.238 205.992 15.3294 205.992 14.2108V3.64258C205.992 2.52397 206.901 1.61536 208.019 1.61536H222.093C223.211 1.61536 224.12 2.52397 224.12 3.64258V14.2108C224.12 15.3294 223.211 16.238 222.093 16.238Z" fill="url(#paint19_radial_109_115)"/>
<path d="M220.477 14.6227H206.404C205.285 14.6227 204.376 13.714 204.376 12.5954V2.02723C204.376 0.908618 205.285 0 206.404 0H220.477C221.596 0 222.504 0.908618 222.504 2.02723V12.5954C222.504 13.714 221.596 14.6227 220.477 14.6227Z" fill="#EECFF8"/>
<path d="M209.533 11.2223L217.347 3.40417" stroke="#6C5CE7" stroke-opacity="0.39" stroke-width="0.385417" stroke-miterlimit="10"/>
<path d="M209.533 3.40417L217.347 11.2223" stroke="#6C5CE7" stroke-opacity="0.39" stroke-width="0.385417" stroke-miterlimit="10"/>
<path d="M281.326 160.841H357.561C358.344 160.841 358.978 160.207 358.978 159.424C358.978 158.64 358.344 158.006 357.561 158.006H281.326C280.543 158.006 279.909 158.64 279.909 159.424C279.909 160.203 280.543 160.841 281.326 160.841Z" fill="#241921"/>
<path d="M281.326 160.841H332.528C333.311 160.841 333.945 160.207 333.945 159.424C333.945 158.64 333.311 158.006 332.528 158.006H281.326C280.543 158.006 279.909 158.64 279.909 159.424C279.909 160.203 280.543 160.841 281.326 160.841Z" fill="#6C5CE7" fill-opacity="0.39"/>
<path d="M267.701 113.573H318.406C319.088 113.573 319.694 114.013 319.908 114.663L333.259 155.212C333.598 156.237 332.835 157.295 331.757 157.295H281.052C280.369 157.295 279.763 156.855 279.549 156.205L266.199 115.657C265.86 114.631 266.623 113.573 267.701 113.573Z" fill="#6C5CE7" fill-opacity="0.39"/>
<path d="M339.962 160.13H343.972C344.299 160.13 344.562 159.864 344.562 159.541C344.562 159.214 344.295 158.951 343.972 158.951H339.962C339.635 158.951 339.373 159.218 339.373 159.541C339.373 159.868 339.639 160.13 339.962 160.13Z" stroke="#F2F6FF" stroke-width="0.385417" stroke-miterlimit="10"/>
<path d="M283.446 160.248H287.456C287.783 160.248 288.046 159.981 288.046 159.658C288.046 159.331 287.779 159.068 287.456 159.068H283.446C283.119 159.068 282.857 159.335 282.857 159.658C282.857 159.985 283.123 160.248 283.446 160.248Z" stroke="#F2F6FF" stroke-width="0.385417" stroke-miterlimit="10"/>
<path d="M336.776 160.248C337.103 160.248 337.366 159.985 337.366 159.658C337.366 159.331 337.103 159.068 336.776 159.068C336.449 159.068 336.186 159.331 336.186 159.658C336.186 159.985 336.453 160.248 336.776 160.248Z" stroke="#F2F6FF" stroke-width="0.385417" stroke-miterlimit="10"/>
<path d="M266.772 113.876C267.031 113.686 267.35 113.573 267.701 113.573H318.406C319.088 113.573 319.694 114.013 319.908 114.663L333.101 154.735L266.772 113.876Z" fill="url(#paint20_radial_109_115)"/>
<path d="M301.889 137.145C302.668 136.006 302.115 134.27 300.649 133.266C299.187 132.263 297.366 132.373 296.587 133.512C295.807 134.651 296.361 136.387 297.827 137.39C299.288 138.394 301.11 138.284 301.889 137.145Z" fill="#0144B9"/>
<path d="M275.293 116.67L291.341 126.597" stroke="#BDD9FF" stroke-width="0.385417" stroke-miterlimit="10"/>
<path d="M138.011 258.144H135.249L125.182 182.224H128.546L138.011 258.144Z" fill="#C3BDF3"/>
<path d="M134.89 182.628L141.512 257.74H138.367L129.026 182.628H134.89ZM135.261 182.224H128.57L138.011 258.144H141.953L135.261 182.224Z" fill="white"/>
<path d="M70.8666 257.942H73.6934L84.0032 182.022H80.5585L70.8666 257.942Z" fill="#C3BDF3"/>
<path d="M80.0779 182.426L70.5112 257.538H67.2724L74.0528 182.426H80.0779ZM80.5342 182.022H73.6812L66.8282 257.942H70.8665L80.5342 182.022Z" fill="white"/>
<path d="M116.673 209.079L137.296 194.339L141.335 177.782L115.49 172.936L60.165 179.801L43.608 180.609L30.2816 187.474L21.1954 204.636V209.079H116.673Z" fill="white"/>
<path d="M65.1483 139.87L55.8602 100.699L55.8118 100.493L55.727 100.295C55.5291 99.8387 50.6791 89.1211 32.4664 89.1211V91.5441V89.1211C30.3301 89.1211 28.0687 89.2705 25.7386 89.5693C13.4178 91.1362 7.36839 96.1477 4.46082 100.073C1.22615 104.446 1.0202 108.428 1.00808 108.864L1 109.151L1.06058 109.434L20.0406 199.084L21.1996 204.564L24.3979 199.964C29.3206 192.885 48.2117 185.398 55.0768 183.112L56.2398 182.725L56.6154 181.558L61.0575 167.827L61.1181 167.642L61.1463 167.448L65.1846 140.795L65.2533 140.331L65.1483 139.87Z" fill="white" stroke="#C3BDF3" stroke-width="0.385417" stroke-miterlimit="10"/>
<path d="M123.877 284.999H121.115L111.048 209.079H114.412L123.877 284.999Z" fill="#C3BDF3"/>
<path d="M120.756 209.482L127.378 284.595H124.233L114.892 209.482H120.756ZM121.127 209.079H114.436L123.877 284.999H127.819L121.127 209.079Z" fill="white"/>
<path d="M32.0989 284.999H34.9257L45.2354 209.079H41.7908L32.0989 284.999Z" fill="#C3BDF3"/>
<path d="M70.4626 148.504L129.313 151.226C135.475 151.513 140.325 156.589 140.325 162.759V163.042H143.96V162.759C143.96 156.589 139.11 151.513 132.947 151.226L74.0971 148.504" stroke="#6C5CE7" stroke-width="0.385417" stroke-miterlimit="10"/>
<path d="M70.4626 148.504L129.313 151.226C135.475 151.513 140.325 156.589 140.325 162.759V163.042H143.96V162.759C143.96 156.589 139.11 151.513 132.947 151.226L74.0971 148.504" fill="#C3BDF3"/>
<path d="M21.1954 204.636V209.079H116.673" stroke="#C3BDF3" stroke-width="0.385417" stroke-miterlimit="10"/>
<path d="M22.1526 203.191H121.547" stroke="#C3BDF3" stroke-width="0.385417" stroke-miterlimit="10"/>
<path d="M22.4071 198.579L3.42712 108.929C3.42712 108.929 3.83095 94.7949 26.0416 91.9681C48.2522 89.1413 53.502 101.256 53.502 101.256L62.79 140.428L58.7517 167.08L54.3096 180.811C54.3096 180.811 28.8684 189.291 22.4071 198.579Z" fill="#C3BDF3"/>
<path d="M86.6319 255.297C86.6319 255.297 80.0091 262.545 75.4095 268.195C72.8048 271.393 71.561 275.525 72.1263 279.607C72.4131 281.683 73.1278 283.427 74.6987 283.585C78.737 283.989 111.043 283.585 111.043 283.585C111.043 283.585 111.043 280.354 102.563 278.335C94.0825 276.316 88.4289 274.701 88.4289 274.701L99.7361 260.567L86.6319 255.297Z" fill="#FFDE99"/>
<path d="M86.6319 255.297C86.6319 255.297 80.0091 262.545 75.4095 268.195C72.8048 271.393 71.561 275.525 72.1263 279.607C72.4131 281.683 73.1278 283.427 74.6987 283.585C78.737 283.989 111.043 283.585 111.043 283.585C111.043 283.585 111.043 280.354 102.563 278.335C94.0825 276.316 88.4289 274.701 88.4289 274.701L99.7361 260.567L86.6319 255.297Z" fill="url(#paint21_radial_109_115)"/>
<path d="M151.632 261.98C151.632 261.98 154.863 279.749 158.901 283.383C162.94 287.018 198.477 285.806 198.477 285.806C198.477 285.806 201.303 284.191 189.996 281.768C178.689 279.345 171.218 277.932 170.007 275.912C168.795 273.893 165.766 260.365 165.766 260.365L151.632 261.98Z" fill="#FFDE99"/>
<path d="M151.632 261.98C151.632 261.98 154.863 279.749 158.901 283.383C162.94 287.018 198.477 285.806 198.477 285.806C198.477 285.806 201.303 284.191 189.996 281.768C178.689 279.345 171.218 277.932 170.007 275.912C168.795 273.893 165.766 260.365 165.766 260.365L151.632 261.98Z" fill="url(#paint22_radial_109_115)"/>
<path d="M83.4906 253.98L88.9342 246.029H90.1376C91.4784 243.844 114.545 206.474 131.324 194.375C135.593 191.298 137.491 188.293 136.97 185.438C135.754 178.795 121.838 174.983 121.697 174.943L121.406 174.866L132.576 160.385L132.705 160.421C132.996 160.502 161.842 168.457 172.184 174.147C174.061 175.181 175.386 176.998 175.814 179.135C176.238 181.263 175.709 183.46 174.364 185.16C164.321 197.82 130.412 239.891 115.805 249.627L105.891 258.354L107.474 259.937L104.449 264.254L83.4906 253.98Z" fill="white"/>
<path d="M132.652 160.619C132.652 160.619 161.644 168.583 172.087 174.325C173.924 175.335 175.204 177.12 175.616 179.175C176.028 181.243 175.515 183.383 174.203 185.035C165.363 196.176 130.443 239.624 115.687 249.457L105.592 258.342L107.207 259.957L104.38 263.995L83.7849 253.9L89.0347 246.227H90.2461C90.2461 246.227 114.072 207.055 131.437 194.537C148.801 182.018 121.745 174.749 121.745 174.749L132.652 160.619ZM132.499 160.159L132.334 160.373L121.43 174.507L121.058 174.987L121.644 175.145C121.781 175.181 135.576 178.965 136.772 185.479C137.277 188.245 135.406 191.185 131.207 194.214C114.605 206.183 91.8776 242.819 90.024 245.827H89.0387H88.8247L88.7035 246.005L83.4537 253.678L83.1917 254.061L83.6112 254.267L104.207 264.363L104.518 264.516L104.715 264.234L107.542 260.195L107.736 259.917L107.498 259.678L106.186 258.366L115.938 249.785C130.581 240.004 164.474 197.953 174.521 185.289C175.906 183.544 176.452 181.287 176.011 179.098C175.571 176.901 174.214 175.036 172.28 173.974C161.914 168.276 133.048 160.312 132.757 160.231L132.499 160.159Z" fill="#6C5CE7" fill-opacity="0.39"/>
<path d="M138.71 218.367V188.681L136.085 189.969C135.168 191.403 133.674 192.925 131.441 194.541C114.076 207.059 90.2503 246.231 90.2503 246.231H89.0388L83.7891 253.904L104.384 263.999L107.211 259.961L105.596 258.346L97.5193 251.077L104.384 239.366C112.461 223.616 138.71 218.367 138.71 218.367Z" fill="url(#paint23_radial_109_115)"/>
<path d="M138.71 218.367V188.681L136.085 189.969C135.168 191.403 133.674 192.925 131.441 194.541C114.076 207.059 90.2503 246.231 90.2503 246.231H89.0388L83.7891 253.904L104.384 263.999L107.211 259.961L105.596 258.346L97.5193 251.077L104.384 239.366C112.461 223.616 138.71 218.367 138.71 218.367Z" fill="url(#paint24_radial_109_115)"/>
<path d="M144.093 256.932H147.279C127.851 214.97 127.911 190.49 127.996 187.555C114.734 191.92 93.7515 194.844 75.6478 194.844C75.6438 194.844 75.6438 194.844 75.6438 194.844C60.9888 194.844 49.7866 192.933 44.1087 189.461C29.5709 180.576 40.2966 161.822 40.4056 161.633L40.4622 161.536L108.265 160.445C110.062 160.728 151.422 167.395 152.238 175.133C153.017 182.531 167.535 248.759 168.355 252.486H169.962L172.078 260.53L146.241 264.221L144.093 256.932Z" fill="white"/>
<path d="M108.269 160.651C108.269 160.651 151.229 167.484 152.036 175.157C152.844 182.83 168.189 252.692 168.189 252.692H169.805L171.824 260.365L146.383 263.999L144.363 257.134H147.594C126.595 211.905 128.21 187.272 128.21 187.272C114.936 191.698 93.8848 194.642 75.6438 194.642C62.2488 194.642 50.3722 193.051 44.2138 189.291C29.6759 180.407 40.5793 161.738 40.5793 161.738L108.269 160.651ZM108.297 160.248H108.261L40.5753 161.334L40.3491 161.338L40.2361 161.536C40.123 161.73 37.4618 166.333 36.5491 172.12C35.3336 179.853 37.91 185.911 44.0038 189.634C49.714 193.123 60.9485 195.046 75.6438 195.046C93.6506 195.046 114.496 192.158 127.79 187.837C127.754 189.654 127.811 195.627 129.636 205.319C131.651 216.028 136.291 233.615 146.968 256.734H144.372H143.83L143.984 257.251L146.003 264.116L146.1 264.452L146.447 264.403L171.888 260.769L172.337 260.704L172.22 260.264L170.2 252.591L170.12 252.288H169.809H168.516C167.39 247.156 153.207 182.414 152.44 175.117C152.238 173.182 149.807 171.272 145.014 169.281C141.331 167.751 136.263 166.188 129.947 164.637C119.213 161.996 108.439 160.272 108.334 160.256L108.297 160.248Z" fill="#6C5CE7" fill-opacity="0.39"/>
<path d="M121.547 182.224C121.547 182.224 115.49 181.416 83.5871 184.647C70.5353 185.967 62.7535 183.573 58.1176 180.277C52.8597 176.546 54.8183 168.288 61.1705 167.201L88.1019 162.59L76.2657 161.164L40.5793 161.738C40.5793 161.738 29.6759 180.407 44.2137 189.291C57.4593 197.384 97.18 195.421 121.547 189.206V182.224Z" fill="url(#paint25_radial_109_115)"/>
<path d="M157.488 151.533L158.817 151.266C160.569 150.915 162.152 149.978 163.299 148.609C169.756 140.892 192.104 114.195 200.698 103.881C202.01 102.044 203.868 100.663 206.004 99.9317L220.485 94.9969C220.485 94.9969 223.716 91.7662 225.735 88.5356V86.1126L228.158 82.4782V80.8628L221.697 84.9011L229.37 78.036C229.37 78.036 230.581 76.4207 226.139 78.036C221.697 79.6514 217.255 83.6896 214.832 84.4973C212.409 85.305 206.755 86.1126 206.755 86.1126C206.755 86.1126 209.986 83.2858 210.39 81.2667C210.793 79.2475 209.986 78.4399 209.986 78.4399C209.986 78.4399 204.736 83.6896 201.505 84.4973C198.275 85.305 193.429 89.7471 193.429 89.7471L192.621 98.2275C192.621 98.2275 185.756 106.304 178.083 112.765C170.41 119.227 162.713 120.975 160.303 127.974C157.892 134.976 157.488 151.533 157.488 151.533Z" fill="#FFDE99"/>
<path d="M157.488 151.533L158.817 151.266C160.569 150.915 162.152 149.978 163.299 148.609C169.756 140.892 192.104 114.195 200.698 103.881C202.01 102.044 203.868 100.663 206.004 99.9317L220.485 94.9969C220.485 94.9969 223.716 91.7662 225.735 88.5356V86.1126L228.158 82.4782V80.8628L221.697 84.9011L229.37 78.036C229.37 78.036 230.581 76.4207 226.139 78.036C221.697 79.6514 217.255 83.6896 214.832 84.4973C212.409 85.305 206.755 86.1126 206.755 86.1126C206.755 86.1126 209.986 83.2858 210.39 81.2667C210.793 79.2475 209.986 78.4399 209.986 78.4399C209.986 78.4399 204.736 83.6896 201.505 84.4973C198.275 85.305 193.429 89.7471 193.429 89.7471L192.621 98.2275C192.621 98.2275 185.756 106.304 178.083 112.765C170.41 119.227 162.713 120.975 160.303 127.974C157.892 134.976 157.488 151.533 157.488 151.533Z" fill="url(#paint26_radial_109_115)"/>
<path d="M217.093 96.1518C217.658 96.2083 222.101 94.593 222.101 94.593L223.716 88.1317C223.716 88.1317 221.697 88.1317 219.274 92.17C219.274 92.17 213.216 92.9777 211.601 94.1892C209.986 95.4006 209.352 98.7928 209.352 98.7928L217.093 96.1518Z" fill="url(#paint27_radial_109_115)"/>
<path d="M136.085 46.1335L137.103 49.1825" stroke="#241921" stroke-width="0.385417" stroke-miterlimit="10"/>
<path d="M116.701 65.5172C119.528 58.6521 121.143 55.8253 121.143 55.8253L119.932 47.3449L114.254 39.2562L103.375 42.0951V42.9028C103.375 42.9028 105.394 53.4024 102.163 57.8445C98.9327 62.2866 94.8944 67.5364 91.2599 67.1326C87.6255 66.7287 90.4523 67.1326 90.4523 67.1326L99.7403 82.8819L113.471 81.2666L119.124 76.4206C119.124 76.4206 113.874 72.3823 116.701 65.5172Z" fill="#FFDE99"/>
<path d="M116.701 65.5172C119.528 58.6521 121.143 55.8253 121.143 55.8253L119.932 47.3449L114.254 39.2562L103.375 42.0951V42.9028C103.375 42.9028 105.394 53.4024 102.163 57.8445C98.9327 62.2866 94.8944 67.5364 91.2599 67.1326C87.6255 66.7287 90.4523 67.1326 90.4523 67.1326L99.7403 82.8819L113.471 81.2666L119.124 76.4206C119.124 76.4206 113.874 72.3823 116.701 65.5172Z" fill="url(#paint28_radial_109_115)"/>
<path d="M139.316 31.9996C139.316 31.9996 135.681 60.6714 128.816 64.3059C128.816 64.3059 109.028 61.0753 113.067 42.903C117.105 24.7306 139.316 31.9996 139.316 31.9996Z" fill="#FFDE99"/>
<path d="M137.171 44.3969C130.609 42.1032 122.355 42.9027 122.355 42.9027L121.143 56.9641L131.477 61.5031C133.949 57.5537 135.855 50.5755 137.171 44.3969Z" fill="url(#paint29_radial_109_115)"/>
<path d="M111.048 43.7104C111.048 43.7104 107.413 56.2292 110.24 58.6521C110.24 58.6521 113.067 61.4789 115.086 61.4789C115.086 61.4789 119.124 64.7096 122.759 64.3057C122.759 64.3057 125.585 66.3249 127.605 65.5172C127.605 65.5172 130.028 65.5172 131.239 63.4981C132.451 61.4789 135.015 53.5477 135.015 53.5477C135.015 53.5477 121.951 50.9794 121.143 48.1526C120.336 45.3258 120.739 41.2875 120.739 41.2875L116.14 36.1185L121.951 33.2109C121.951 33.2109 124.778 36.8453 129.624 36.0377C129.624 36.0377 134.066 36.8453 136.489 34.0185C136.489 34.0185 140.123 35.6339 143.758 31.5956C147.392 27.5573 146.988 24.7305 146.988 24.7305C146.988 24.7305 152.642 24.7305 152.238 21.096C151.834 17.4615 148.2 12.6156 142.546 13.4232C136.893 14.2309 130.431 15.4424 130.431 15.4424C129.624 15.0386 125.989 13.8271 125.989 13.8271C125.989 13.8271 125.585 12.6156 124.374 12.6156C123.162 12.6156 117.913 13.8271 115.49 12.6156C113.067 11.4041 107.413 11.0003 105.798 12.6156C104.182 14.2309 102.567 20.6922 102.567 20.6922C102.567 20.6922 95.2982 23.9228 96.9135 29.5764C98.5289 35.23 99.3365 34.0185 99.3365 37.653C99.3365 41.2875 96.9135 42.9028 99.3365 44.1143C101.759 45.3258 105.394 46.1334 105.394 46.1334L111.048 43.7104Z" fill="#FB8F8F"/>
<path d="M111.048 43.7104C111.048 43.7104 107.413 56.2292 110.24 58.6521C110.24 58.6521 113.067 61.4789 115.086 61.4789C115.086 61.4789 119.124 64.7096 122.759 64.3057C122.759 64.3057 125.585 66.3249 127.605 65.5172C127.605 65.5172 130.028 65.5172 131.239 63.4981C132.451 61.4789 135.015 53.5477 135.015 53.5477C135.015 53.5477 121.951 50.9794 121.143 48.1526C120.336 45.3258 120.739 41.2875 120.739 41.2875L116.14 36.1185L121.951 33.2109C121.951 33.2109 124.778 36.8453 129.624 36.0377C129.624 36.0377 134.066 36.8453 136.489 34.0185C136.489 34.0185 140.123 35.6339 143.758 31.5956C147.392 27.5573 146.988 24.7305 146.988 24.7305C146.988 24.7305 152.642 24.7305 152.238 21.096C151.834 17.4615 148.2 12.6156 142.546 13.4232C136.893 14.2309 130.431 15.4424 130.431 15.4424C129.624 15.0386 125.989 13.8271 125.989 13.8271C125.989 13.8271 125.585 12.6156 124.374 12.6156C123.162 12.6156 117.913 13.8271 115.49 12.6156C113.067 11.4041 107.413 11.0003 105.798 12.6156C104.182 14.2309 102.567 20.6922 102.567 20.6922C102.567 20.6922 95.2982 23.9228 96.9135 29.5764C98.5289 35.23 99.3365 34.0185 99.3365 37.653C99.3365 41.2875 96.9135 42.9028 99.3365 44.1143C101.759 45.3258 105.394 46.1334 105.394 46.1334L111.048 43.7104Z" fill="url(#paint30_radial_109_115)"/>
<path d="M110.846 50.3736C116.644 50.3736 121.345 45.6727 121.345 39.8741C121.345 34.0755 116.644 29.3745 110.846 29.3745C105.047 29.3745 100.346 34.0755 100.346 39.8741C100.346 45.6727 105.047 50.3736 110.846 50.3736Z" fill="#241921"/>
<path d="M112.259 50.5755C118.058 50.5755 122.759 45.8746 122.759 40.076C122.759 34.2774 118.058 29.5764 112.259 29.5764C106.46 29.5764 101.76 34.2774 101.76 40.076C101.76 45.8746 106.46 50.5755 112.259 50.5755Z" stroke="#241921" stroke-width="0.385417" stroke-miterlimit="10"/>
<path d="M114.674 32.5931L111.864 31.002L114.412 26.5073C117.287 21.4352 121.462 17.2395 126.518 14.344C126.849 14.1542 127.237 14.0977 127.613 14.1784L130.528 14.8044C130.928 14.8892 131.017 15.4222 130.666 15.6322L128.586 16.8881C123.829 19.5009 119.895 23.3777 117.222 28.1025L114.674 32.5931Z" fill="#241921"/>
<path d="M137.103 49.1823L137.369 49.9859C138.096 52.1706 137.926 54.5572 136.897 56.6208L136.085 58.2482" stroke="#241921" stroke-width="0.385417" stroke-miterlimit="10"/>
<path d="M135.681 59.4599C136.573 59.4599 137.296 58.7366 137.296 57.8446C137.296 56.9525 136.573 56.2292 135.681 56.2292C134.789 56.2292 134.066 56.9525 134.066 57.8446C134.066 58.7366 134.789 59.4599 135.681 59.4599Z" fill="#241921"/>
<path d="M145.171 234.116C139.921 214.328 138.306 182.426 138.306 182.426L124.98 186.868L124.782 188.334C125.973 187.991 127.12 187.635 128.21 187.272C128.21 187.272 126.595 211.905 147.594 257.134L165.766 253.904C165.766 253.904 150.421 253.904 145.171 234.116Z" fill="url(#paint31_radial_109_115)"/>
<path d="M91.2599 67.1326C91.2599 67.1326 81.568 63.902 70.6646 67.1326C70.6646 67.1326 41.9928 115.996 36.743 116.804C31.4932 117.611 36.743 122.053 36.743 122.053C36.743 122.053 33.1085 122.053 34.32 124.073C34.32 124.073 51.6847 119.63 56.9344 120.438C62.1842 121.246 59.3574 125.688 59.3574 125.688L49.2617 139.014C49.2617 139.014 37.9545 153.956 37.5506 160.013C37.1468 166.071 117.913 161.225 117.913 161.225L121.547 155.571C121.547 155.571 122.355 145.072 125.989 134.572C129.624 124.073 130.835 119.227 130.835 119.227C130.835 119.227 140.527 139.014 146.988 144.668C153.45 150.321 153.45 147.898 153.45 147.898C153.45 147.898 154.257 152.341 157.488 151.937C157.488 151.937 157.892 129.322 162.334 124.073C162.334 124.073 161.93 118.015 158.699 119.227L156.276 120.438C156.276 120.438 157.084 118.015 154.661 117.611C154.661 117.611 140.685 92.8162 137.7 86.5164C134.066 78.8437 119.124 76.4207 119.124 76.4207C119.124 76.4207 102.971 85.3049 91.2599 67.1326Z" fill="#6C5CE7"/>
<path d="M119.415 194.137C117.731 194.137 116.156 193.382 115.094 192.069L92.4917 164.112C91.9021 163.381 91.7123 162.408 91.9909 161.508C92.2696 160.615 92.9641 159.92 93.8566 159.654L122.089 151.222C122.606 151.069 123.139 150.992 123.672 150.992C125.356 150.992 126.931 151.747 127.993 153.059L150.603 181.013C151.193 181.743 151.382 182.717 151.099 183.617C150.821 184.51 150.127 185.204 149.234 185.471L120.998 193.903C120.486 194.06 119.952 194.137 119.415 194.137Z" fill="white"/>
<path d="M123.675 151.19C125.299 151.19 126.817 151.917 127.839 153.185L150.441 181.142C150.99 181.82 151.164 182.725 150.905 183.561C150.643 184.401 150.013 185.031 149.173 185.281L120.937 193.713C120.44 193.862 119.928 193.935 119.411 193.935C117.787 193.935 116.273 193.208 115.247 191.94L92.6449 163.983C92.0957 163.305 91.922 162.4 92.1805 161.564C92.443 160.724 93.0729 160.094 93.9129 159.844L122.145 151.412C122.645 151.266 123.162 151.19 123.675 151.19ZM123.675 150.786C123.126 150.786 122.577 150.863 122.032 151.028L93.7998 159.46C91.7565 160.07 90.9892 162.574 92.3339 164.237L114.936 192.195C116.051 193.572 117.707 194.339 119.415 194.339C119.96 194.339 120.513 194.262 121.054 194.097L149.29 185.665C151.333 185.055 152.101 182.551 150.756 180.887L128.154 152.93C127.043 151.553 125.387 150.786 123.675 150.786Z" fill="#6C5CE7" fill-opacity="0.39"/>
<path d="M122.246 149.413L93.5981 157.913C91.5265 158.527 90.7471 161.055 92.112 162.731L115.046 190.906C116.54 192.74 118.987 193.495 121.256 192.824L149.904 184.324C151.976 183.71 152.755 181.182 151.39 179.506L128.457 151.331C126.962 149.498 124.511 148.742 122.246 149.413Z" fill="#6C5CE7"/>
<path d="M120.606 166.22L119.593 169.556L122.153 173.041L125.719 173.19L126.732 169.855L124.172 166.37L120.606 166.22Z" fill="url(#paint32_radial_109_115)"/>
<path d="M128.287 190.737L149.9 184.324C151.972 183.71 152.751 181.182 151.386 179.506L131.813 155.458L128.287 190.737Z" fill="url(#paint33_radial_109_115)"/>
<path d="M34.118 124.275L31.4083 132.706C30.8591 134.423 31.489 136.292 32.9671 137.322C35.2608 138.917 38.6005 141.211 40.5792 142.451C42.5742 143.699 64.4052 150.124 81.366 152.143C98.3268 154.162 104.384 155.777 104.384 155.777C104.384 155.777 111.209 164.682 114.686 167.731C115.421 168.373 116.495 168.433 117.307 167.892C117.307 167.892 119.326 169.911 122.96 169.911L123.364 169.104C123.845 168.623 123.966 167.884 123.663 167.274L118.518 156.985C118.518 156.985 124.98 167.888 128.21 166.677C128.21 166.677 121.749 154.966 120.134 152.139C118.518 149.312 117.307 148.504 117.307 148.504C117.307 148.504 110.038 149.312 107.615 148.1C105.192 146.889 64.5304 130.489 56.3932 129.605C56.3932 129.605 60.2215 126.286 60.0923 122.857C59.9631 119.429 52.3024 120.555 47.6543 121.201C43.0022 121.852 34.118 124.275 34.118 124.275Z" fill="#FFDE99"/>
<path d="M34.118 124.275L31.4083 132.706C30.8591 134.423 31.489 136.292 32.9671 137.322C35.2608 138.917 38.6005 141.211 40.5792 142.451C42.5742 143.699 64.4052 150.124 81.366 152.143C98.3268 154.162 104.384 155.777 104.384 155.777C104.384 155.777 111.209 164.682 114.686 167.731C115.421 168.373 116.495 168.433 117.307 167.892C117.307 167.892 119.326 169.911 122.96 169.911L123.364 169.104C123.845 168.623 123.966 167.884 123.663 167.274L118.518 156.985C118.518 156.985 124.98 167.888 128.21 166.677C128.21 166.677 121.749 154.966 120.134 152.139C118.518 149.312 117.307 148.504 117.307 148.504C117.307 148.504 110.038 149.312 107.615 148.1C105.192 146.889 64.5304 130.489 56.3932 129.605C56.3932 129.605 60.2215 126.286 60.0923 122.857C59.9631 119.429 52.3024 120.555 47.6543 121.201C43.0022 121.852 34.118 124.275 34.118 124.275Z" fill="url(#paint34_radial_109_115)"/>
<path d="M128.21 166.677C128.21 166.677 121.749 154.965 120.134 152.139C118.518 149.312 117.307 148.504 117.307 148.504C117.307 148.504 117.275 148.508 117.218 148.512C117.178 148.577 117.137 148.633 117.105 148.706C115.086 152.744 111.048 156.783 111.048 156.783L117.069 168.021C117.149 167.981 117.23 167.941 117.307 167.888C117.307 167.888 119.326 169.907 122.961 169.907L123.364 169.1C123.845 168.619 123.966 167.88 123.663 167.27L118.518 156.985C118.518 156.985 124.98 167.888 128.21 166.677Z" fill="url(#paint35_radial_109_115)"/>
<path d="M150.094 256.69L165.767 253.904" stroke="#6C5CE7" stroke-opacity="0.39" stroke-width="0.385417" stroke-miterlimit="10"/>
<path d="M93.8848 248.25L104.251 257.134" stroke="#6C5CE7" stroke-opacity="0.39" stroke-width="0.385417" stroke-miterlimit="10"/>
<path d="M162.132 195.348C162.132 195.348 172.632 184.041 172.632 180.407C172.632 176.772 170.209 175.965 170.209 175.965" stroke="#6C5CE7" stroke-opacity="0.39" stroke-width="0.385417" stroke-miterlimit="10"/>
<path d="M49.8674 187.676C49.8674 187.676 61.1747 193.329 79.7508 191.31" stroke="#6C5CE7" stroke-opacity="0.39" stroke-width="0.385417" stroke-miterlimit="10"/>
<path d="M156.074 122.255C156.074 122.255 152.44 131.14 152.844 142.043" stroke="#DEF4FF" stroke-width="0.385417" stroke-miterlimit="10"/>
<path d="M153.248 118.217C153.248 118.217 150.825 123.063 150.017 131.543" stroke="#DEF4FF" stroke-width="0.385417" stroke-miterlimit="10"/>
<path d="M37.7524 120.64C37.7524 120.64 54.3094 114.583 59.5592 118.217C64.809 121.851 64.809 117.006 64.809 117.006C64.809 117.006 64.4052 115.39 59.9631 114.179" stroke="#DEF4FF" stroke-width="0.385417" stroke-miterlimit="10"/>
<path d="M60.0803 123.838C60.0803 123.838 66.4245 123.871 66.8283 119.429C67.2321 114.986 67.2321 115.39 71.2704 110.14C75.3087 104.891 78.9432 94.3911 78.9432 94.3911" stroke="#DEF4FF" stroke-width="0.385417" stroke-miterlimit="10"/>
<path d="M10.292 152.341L69.142 155.062C75.3045 155.349 80.1545 160.425 80.1545 166.596V166.878H83.7889V166.596C83.7889 160.425 78.9389 155.349 72.7765 155.062L13.9265 152.341" stroke="#6C5CE7" stroke-width="0.385417" stroke-miterlimit="10"/>
<path d="M10.292 152.341L69.142 155.062C75.3045 155.349 80.1545 160.425 80.1545 166.596V166.878H83.7889V166.596C83.7889 160.425 78.9389 155.349 72.7765 155.062L13.9265 152.341" fill="#C3BDF3"/>
<path d="M99.1346 203.021V209.079" stroke="#C3BDF3" stroke-width="0.385417" stroke-miterlimit="10"/>
<path d="M41.3103 209.482L31.7436 284.595H28.5049L35.2852 209.482H41.3103ZM41.7666 209.079H34.9137L28.0607 284.999H32.099L41.7666 209.079Z" fill="white"/>
<defs>
<radialGradient id="paint0_radial_109_115" cx="0" cy="0" r="1" gradientUnits="userSpaceOnUse" gradientTransform="translate(366.599 87.7234) scale(205.522 205.522)">
<stop stop-color="#335BFC"/>
<stop offset="0.1457" stop-color="#6886FD"/>
<stop offset="0.2916" stop-color="#96ABFD"/>
<stop offset="0.4383" stop-color="#BCC9FE"/>
<stop offset="0.5833" stop-color="#D9E1FE"/>
<stop offset="0.7263" stop-color="#EEF1FF"/>
<stop offset="0.8663" stop-color="#FBFCFF"/>
<stop offset="1" stop-color="white"/>
</radialGradient>
<radialGradient id="paint1_radial_109_115" cx="0" cy="0" r="1" gradientUnits="userSpaceOnUse" gradientTransform="translate(323.179 200.543) scale(38.7924)">
<stop offset="0.0775" stop-color="#FBFBFB"/>
<stop offset="1" stop-color="#FBFBFB"/>
</radialGradient>
<radialGradient id="paint2_radial_109_115" cx="0" cy="0" r="1" gradientUnits="userSpaceOnUse" gradientTransform="translate(445.014 155.712) scale(74.202 74.202)">
<stop offset="0.0775" stop-color="#0144B9"/>
<stop offset="1" stop-color="#FB8F8F" stop-opacity="0"/>
</radialGradient>
<radialGradient id="paint3_radial_109_115" cx="0" cy="0" r="1" gradientUnits="userSpaceOnUse" gradientTransform="translate(301.392 147.913) scale(76.0968 76.0968)">
<stop offset="0.0775" stop-color="#0144B9"/>
<stop offset="1" stop-color="#FB8F8F" stop-opacity="0"/>
</radialGradient>
<radialGradient id="paint4_radial_109_115" cx="0" cy="0" r="1" gradientUnits="userSpaceOnUse" gradientTransform="translate(311.791 97.7379) scale(14.5464 14.5464)">
<stop stop-color="#FA404B"/>
<stop offset="0.025" stop-color="#FA484F" stop-opacity="0.975"/>
<stop offset="0.1916" stop-color="#FC7565" stop-opacity="0.8084"/>
<stop offset="0.3589" stop-color="#FD9B78" stop-opacity="0.6411"/>
<stop offset="0.5244" stop-color="#FEB886" stop-opacity="0.4756"/>
<stop offset="0.6876" stop-color="#FECD91" stop-opacity="0.3124"/>
<stop offset="0.8474" stop-color="#FFDA97" stop-opacity="0.1526"/>
<stop offset="1" stop-color="#FFDE99" stop-opacity="0"/>
</radialGradient>
<radialGradient id="paint5_radial_109_115" cx="0" cy="0" r="1" gradientUnits="userSpaceOnUse" gradientTransform="translate(307.159 93.4325) scale(17.1364 17.1364)">
<stop stop-color="#FA404B"/>
<stop offset="0.025" stop-color="#FA484F" stop-opacity="0.975"/>
<stop offset="0.1916" stop-color="#FC7565" stop-opacity="0.8084"/>
<stop offset="0.3589" stop-color="#FD9B78" stop-opacity="0.6411"/>
<stop offset="0.5244" stop-color="#FEB886" stop-opacity="0.4756"/>
<stop offset="0.6876" stop-color="#FECD91" stop-opacity="0.3124"/>
<stop offset="0.8474" stop-color="#FFDA97" stop-opacity="0.1526"/>
<stop offset="1" stop-color="#FFDE99" stop-opacity="0"/>
</radialGradient>
<radialGradient id="paint6_radial_109_115" cx="0" cy="0" r="1" gradientUnits="userSpaceOnUse" gradientTransform="translate(366.163 118.994) scale(30.0261 30.0261)">
<stop stop-color="#FA404B"/>
<stop offset="0.025" stop-color="#FA484F" stop-opacity="0.975"/>
<stop offset="0.1916" stop-color="#FC7565" stop-opacity="0.8084"/>
<stop offset="0.3589" stop-color="#FD9B78" stop-opacity="0.6411"/>
<stop offset="0.5244" stop-color="#FEB886" stop-opacity="0.4756"/>
<stop offset="0.6876" stop-color="#FECD91" stop-opacity="0.3124"/>
<stop offset="0.8474" stop-color="#FFDA97" stop-opacity="0.1526"/>
<stop offset="1" stop-color="#FFDE99" stop-opacity="0"/>
</radialGradient>
<radialGradient id="paint7_radial_109_115" cx="0" cy="0" r="1" gradientUnits="userSpaceOnUse" gradientTransform="translate(367.354 55.9021) scale(51.8371 51.8371)">
<stop stop-color="#FA404B"/>
<stop offset="0.025" stop-color="#FA484F" stop-opacity="0.975"/>
<stop offset="0.1916" stop-color="#FC7565" stop-opacity="0.8084"/>
<stop offset="0.3589" stop-color="#FD9B78" stop-opacity="0.6411"/>
<stop offset="0.5244" stop-color="#FEB886" stop-opacity="0.4756"/>
<stop offset="0.6876" stop-color="#FECD91" stop-opacity="0.3124"/>
<stop offset="0.8474" stop-color="#FFDA97" stop-opacity="0.1526"/>
<stop offset="1" stop-color="#FFDE99" stop-opacity="0"/>
</radialGradient>
<radialGradient id="paint8_radial_109_115" cx="0" cy="0" r="1" gradientUnits="userSpaceOnUse" gradientTransform="translate(392.779 64.0255) scale(27.0123 27.0124)">
<stop offset="0.0775" stop-color="#0144B9"/>
<stop offset="1" stop-color="#0060FB" stop-opacity="0"/>
</radialGradient>
<radialGradient id="paint9_radial_109_115" cx="0" cy="0" r="1" gradientUnits="userSpaceOnUse" gradientTransform="translate(397.573 131.775) scale(35.3842 35.3842)">
<stop offset="0.0775" stop-color="#6C5CE7"/>
<stop offset="1" stop-color="#6C5CE7"/>
</radialGradient>
<radialGradient id="paint10_radial_109_115" cx="0" cy="0" r="1" gradientUnits="userSpaceOnUse" gradientTransform="translate(377.862 40.2513) scale(53.2033 53.2033)">
<stop stop-color="#FA404B"/>
<stop offset="0.025" stop-color="#FA484F" stop-opacity="0.975"/>
<stop offset="0.1916" stop-color="#FC7565" stop-opacity="0.8084"/>
<stop offset="0.3589" stop-color="#FD9B78" stop-opacity="0.6411"/>
<stop offset="0.5244" stop-color="#FEB886" stop-opacity="0.4756"/>
<stop offset="0.6876" stop-color="#FECD91" stop-opacity="0.3124"/>
<stop offset="0.8474" stop-color="#FFDA97" stop-opacity="0.1526"/>
<stop offset="1" stop-color="#FFDE99" stop-opacity="0"/>
</radialGradient>
<radialGradient id="paint11_radial_109_115" cx="0" cy="0" r="1" gradientUnits="userSpaceOnUse" gradientTransform="translate(357 37.2949) scale(20.742 20.742)">
<stop stop-color="#FA404B"/>
<stop offset="0.025" stop-color="#FA484F" stop-opacity="0.975"/>
<stop offset="0.1916" stop-color="#FC7565" stop-opacity="0.8084"/>
<stop offset="0.3589" stop-color="#FD9B78" stop-opacity="0.6411"/>
<stop offset="0.5244" stop-color="#FEB886" stop-opacity="0.4756"/>
<stop offset="0.6876" stop-color="#FECD91" stop-opacity="0.3124"/>
<stop offset="0.8474" stop-color="#FFDA97" stop-opacity="0.1526"/>
<stop offset="1" stop-color="#FFDE99" stop-opacity="0"/>
</radialGradient>
<radialGradient id="paint12_radial_109_115" cx="0" cy="0" r="1" gradientUnits="userSpaceOnUse" gradientTransform="translate(412.684 43.2295) scale(63.467 63.467)">
<stop stop-color="#FA404B"/>
<stop offset="0.025" stop-color="#FA484F" stop-opacity="0.975"/>
<stop offset="0.1916" stop-color="#FC7565" stop-opacity="0.8084"/>
<stop offset="0.3589" stop-color="#FD9B78" stop-opacity="0.6411"/>
<stop offset="0.5244" stop-color="#FEB886" stop-opacity="0.4756"/>
<stop offset="0.6876" stop-color="#FECD91" stop-opacity="0.3124"/>
<stop offset="0.8474" stop-color="#FFDA97" stop-opacity="0.1526"/>
<stop offset="1" stop-color="#FFDE99" stop-opacity="0"/>
</radialGradient>
<radialGradient id="paint13_radial_109_115" cx="0" cy="0" r="1" gradientUnits="userSpaceOnUse" gradientTransform="translate(411.763 121.485) scale(30.6133 30.6133)">
<stop offset="0.0775" stop-color="#6C5CE7"/>
<stop offset="1" stop-color="#6C5CE7"/>
</radialGradient>
<radialGradient id="paint14_radial_109_115" cx="0" cy="0" r="1" gradientUnits="userSpaceOnUse" gradientTransform="translate(369.304 139.682) scale(9.49518 9.49515)">
<stop stop-color="#FA404B"/>
<stop offset="0.025" stop-color="#FA484F" stop-opacity="0.975"/>
<stop offset="0.1916" stop-color="#FC7565" stop-opacity="0.8084"/>
<stop offset="0.3589" stop-color="#FD9B78" stop-opacity="0.6411"/>
<stop offset="0.5244" stop-color="#FEB886" stop-opacity="0.4756"/>
<stop offset="0.6876" stop-color="#FECD91" stop-opacity="0.3124"/>
<stop offset="0.8474" stop-color="#FFDA97" stop-opacity="0.1526"/>
<stop offset="1" stop-color="#FFDE99" stop-opacity="0"/>
</radialGradient>
<radialGradient id="paint15_radial_109_115" cx="0" cy="0" r="1" gradientUnits="userSpaceOnUse" gradientTransform="translate(386.851 164.16) scale(55.8561 55.8561)">
<stop stop-color="#FA404B"/>
<stop offset="0.025" stop-color="#FA484F" stop-opacity="0.975"/>
<stop offset="0.1916" stop-color="#FC7565" stop-opacity="0.8084"/>
<stop offset="0.3589" stop-color="#FD9B78" stop-opacity="0.6411"/>
<stop offset="0.5244" stop-color="#FEB886" stop-opacity="0.4756"/>
<stop offset="0.6876" stop-color="#FECD91" stop-opacity="0.3124"/>
<stop offset="0.8474" stop-color="#FFDA97" stop-opacity="0.1526"/>
<stop offset="1" stop-color="#FFDE99" stop-opacity="0"/>
</radialGradient>
<radialGradient id="paint16_radial_109_115" cx="0" cy="0" r="1" gradientUnits="userSpaceOnUse" gradientTransform="translate(271.848 92.8331) rotate(180) scale(49.9133 49.8734)">
<stop stop-color="#FA404B"/>
<stop offset="0.025" stop-color="#FA484F" stop-opacity="0.975"/>
<stop offset="0.1916" stop-color="#FC7565" stop-opacity="0.8084"/>
<stop offset="0.3589" stop-color="#FD9B78" stop-opacity="0.6411"/>
<stop offset="0.5244" stop-color="#FEB886" stop-opacity="0.4756"/>
<stop offset="0.6876" stop-color="#FECD91" stop-opacity="0.3124"/>
<stop offset="0.8474" stop-color="#FFDA97" stop-opacity="0.1526"/>
<stop offset="1" stop-color="#FFDE99" stop-opacity="0"/>
</radialGradient>
<radialGradient id="paint17_radial_109_115" cx="0" cy="0" r="1" gradientUnits="userSpaceOnUse" gradientTransform="translate(286.475 -27.8183) scale(126.262 126.262)">
<stop stop-color="#335BFC"/>
<stop offset="0.1457" stop-color="#6886FD" stop-opacity="0.8543"/>
<stop offset="0.2916" stop-color="#96ABFD" stop-opacity="0.7084"/>
<stop offset="0.4383" stop-color="#BCC9FE" stop-opacity="0.5617"/>
<stop offset="0.5833" stop-color="#D9E1FE" stop-opacity="0.4167"/>
<stop offset="0.7263" stop-color="#EEF1FF" stop-opacity="0.2737"/>
<stop offset="0.8663" stop-color="#FBFCFF" stop-opacity="0.1337"/>
<stop offset="1" stop-color="white" stop-opacity="0"/>
</radialGradient>
<radialGradient id="paint18_radial_109_115" cx="0" cy="0" r="1" gradientUnits="userSpaceOnUse" gradientTransform="translate(308.379 16.8579) scale(111.498)">
<stop stop-color="#FA404B"/>
<stop offset="0.025" stop-color="#FA484F" stop-opacity="0.975"/>
<stop offset="0.1916" stop-color="#FC7565" stop-opacity="0.8084"/>
<stop offset="0.3589" stop-color="#FD9B78" stop-opacity="0.6411"/>
<stop offset="0.5244" stop-color="#FEB886" stop-opacity="0.4756"/>
<stop offset="0.6876" stop-color="#FECD91" stop-opacity="0.3124"/>
<stop offset="0.8474" stop-color="#FFDA97" stop-opacity="0.1526"/>
<stop offset="1" stop-color="#FFDE99" stop-opacity="0"/>
</radialGradient>
<radialGradient id="paint19_radial_109_115" cx="0" cy="0" r="1" gradientUnits="userSpaceOnUse" gradientTransform="translate(212.047 24.3736) scale(30.5919 30.5919)">
<stop stop-color="#335BFC"/>
<stop offset="0.1457" stop-color="#6886FD" stop-opacity="0.8543"/>
<stop offset="0.2916" stop-color="#96ABFD" stop-opacity="0.7084"/>
<stop offset="0.4383" stop-color="#BCC9FE" stop-opacity="0.5617"/>
<stop offset="0.5833" stop-color="#D9E1FE" stop-opacity="0.4167"/>
<stop offset="0.7263" stop-color="#EEF1FF" stop-opacity="0.2737"/>
<stop offset="0.8663" stop-color="#FBFCFF" stop-opacity="0.1337"/>
<stop offset="1" stop-color="white" stop-opacity="0"/>
</radialGradient>
<radialGradient id="paint20_radial_109_115" cx="0" cy="0" r="1" gradientUnits="userSpaceOnUse" gradientTransform="translate(290.659 98.4071) rotate(180) scale(52.1974 52.2757)">
<stop offset="0.1096" stop-color="#BDD9FF"/>
<stop offset="1" stop-color="#0061FE" stop-opacity="0"/>
</radialGradient>
<radialGradient id="paint21_radial_109_115" cx="0" cy="0" r="1" gradientUnits="userSpaceOnUse" gradientTransform="translate(60.3858 241.213) scale(70.8846 70.8846)">
<stop stop-color="#FA404B"/>
<stop offset="0.025" stop-color="#FA484F" stop-opacity="0.975"/>
<stop offset="0.1916" stop-color="#FC7565" stop-opacity="0.8084"/>
<stop offset="0.3589" stop-color="#FD9B78" stop-opacity="0.6411"/>
<stop offset="0.5244" stop-color="#FEB886" stop-opacity="0.4756"/>
<stop offset="0.6876" stop-color="#FECD91" stop-opacity="0.3124"/>
<stop offset="0.8474" stop-color="#FFDA97" stop-opacity="0.1526"/>
<stop offset="1" stop-color="#FFDE99" stop-opacity="0"/>
</radialGradient>
<radialGradient id="paint22_radial_109_115" cx="0" cy="0" r="1" gradientUnits="userSpaceOnUse" gradientTransform="translate(149.45 250.394) scale(48.594 48.594)">
<stop stop-color="#FA404B"/>
<stop offset="0.025" stop-color="#FA484F" stop-opacity="0.975"/>
<stop offset="0.1916" stop-color="#FC7565" stop-opacity="0.8084"/>
<stop offset="0.3589" stop-color="#FD9B78" stop-opacity="0.6411"/>
<stop offset="0.5244" stop-color="#FEB886" stop-opacity="0.4756"/>
<stop offset="0.6876" stop-color="#FECD91" stop-opacity="0.3124"/>
<stop offset="0.8474" stop-color="#FFDA97" stop-opacity="0.1526"/>
<stop offset="1" stop-color="#FFDE99" stop-opacity="0"/>
</radialGradient>
<radialGradient id="paint23_radial_109_115" cx="0" cy="0" r="1" gradientUnits="userSpaceOnUse" gradientTransform="translate(124.047 196.222) scale(63.4699 63.4699)">
<stop offset="0.0829" stop-color="#F2F6FF"/>
<stop offset="0.484" stop-color="#FBFCFF" stop-opacity="0.5627"/>
<stop offset="1" stop-color="white" stop-opacity="0"/>
</radialGradient>
<radialGradient id="paint24_radial_109_115" cx="0" cy="0" r="1" gradientUnits="userSpaceOnUse" gradientTransform="translate(92.3692 253.914) scale(50.2093 50.2093)">
<stop offset="0.0829" stop-color="#F2F6FF"/>
<stop offset="0.484" stop-color="#FBFCFF" stop-opacity="0.5627"/>
<stop offset="1" stop-color="white" stop-opacity="0"/>
</radialGradient>
<radialGradient id="paint25_radial_109_115" cx="0" cy="0" r="1" gradientUnits="userSpaceOnUse" gradientTransform="translate(35.6461 155.261) scale(180.135 180.135)">
<stop offset="0.0829" stop-color="#F2F6FF"/>
<stop offset="0.484" stop-color="#FBFCFF" stop-opacity="0.5627"/>
<stop offset="1" stop-color="white" stop-opacity="0"/>
</radialGradient>
<radialGradient id="paint26_radial_109_115" cx="0" cy="0" r="1" gradientUnits="userSpaceOnUse" gradientTransform="translate(163.069 160.26) scale(52.6347 52.6347)">
<stop stop-color="#FA404B"/>
<stop offset="0.025" stop-color="#FA484F" stop-opacity="0.975"/>
<stop offset="0.1916" stop-color="#FC7565" stop-opacity="0.8084"/>
<stop offset="0.3589" stop-color="#FD9B78" stop-opacity="0.6411"/>
<stop offset="0.5244" stop-color="#FEB886" stop-opacity="0.4756"/>
<stop offset="0.6876" stop-color="#FECD91" stop-opacity="0.3124"/>
<stop offset="0.8474" stop-color="#FFDA97" stop-opacity="0.1526"/>
<stop offset="1" stop-color="#FFDE99" stop-opacity="0"/>
</radialGradient>
<radialGradient id="paint27_radial_109_115" cx="0" cy="0" r="1" gradientUnits="userSpaceOnUse" gradientTransform="translate(252.209 86.7288) scale(42.4271 42.4271)">
<stop stop-color="#FA404B"/>
<stop offset="0.138" stop-color="#FB635C"/>
<stop offset="0.3337" stop-color="#FC8F72"/>
<stop offset="0.5231" stop-color="#FEB183"/>
<stop offset="0.7018" stop-color="#FECA8F"/>
<stop offset="0.8654" stop-color="#FFD996"/>
<stop offset="1" stop-color="#FFDE99"/>
</radialGradient>
<radialGradient id="paint28_radial_109_115" cx="0" cy="0" r="1" gradientUnits="userSpaceOnUse" gradientTransform="translate(122.058 60.3313) scale(28.2853 28.2853)">
<stop stop-color="#FA404B"/>
<stop offset="0.025" stop-color="#FA484F" stop-opacity="0.975"/>
<stop offset="0.1916" stop-color="#FC7565" stop-opacity="0.8084"/>
<stop offset="0.3589" stop-color="#FD9B78" stop-opacity="0.6411"/>
<stop offset="0.5244" stop-color="#FEB886" stop-opacity="0.4756"/>
<stop offset="0.6876" stop-color="#FECD91" stop-opacity="0.3124"/>
<stop offset="0.8474" stop-color="#FFDA97" stop-opacity="0.1526"/>
<stop offset="1" stop-color="#FFDE99" stop-opacity="0"/>
</radialGradient>
<radialGradient id="paint29_radial_109_115" cx="0" cy="0" r="1" gradientUnits="userSpaceOnUse" gradientTransform="translate(134.453 37.6829) scale(20.1687 20.1686)">
<stop stop-color="#FA404B"/>
<stop offset="0.025" stop-color="#FA484F" stop-opacity="0.975"/>
<stop offset="0.1916" stop-color="#FC7565" stop-opacity="0.8084"/>
<stop offset="0.3589" stop-color="#FD9B78" stop-opacity="0.6411"/>
<stop offset="0.5244" stop-color="#FEB886" stop-opacity="0.4756"/>
<stop offset="0.6876" stop-color="#FECD91" stop-opacity="0.3124"/>
<stop offset="0.8474" stop-color="#FFDA97" stop-opacity="0.1526"/>
<stop offset="1" stop-color="#FFDE99" stop-opacity="0"/>
</radialGradient>
<radialGradient id="paint30_radial_109_115" cx="0" cy="0" r="1" gradientUnits="userSpaceOnUse" gradientTransform="translate(88.6968 37.7338) scale(46.4032 46.4032)">
<stop stop-color="#FA404B"/>
<stop offset="0.025" stop-color="#FA484F" stop-opacity="0.975"/>
<stop offset="0.1916" stop-color="#FC7565" stop-opacity="0.8084"/>
<stop offset="0.3589" stop-color="#FD9B78" stop-opacity="0.6411"/>
<stop offset="0.5244" stop-color="#FEB886" stop-opacity="0.4756"/>
<stop offset="0.6876" stop-color="#FECD91" stop-opacity="0.3124"/>
<stop offset="0.8474" stop-color="#FFDA97" stop-opacity="0.1526"/>
<stop offset="1" stop-color="#FFDE99" stop-opacity="0"/>
</radialGradient>
<radialGradient id="paint31_radial_109_115" cx="0" cy="0" r="1" gradientUnits="userSpaceOnUse" gradientTransform="translate(125.577 210.913) scale(138.5 138.5)">
<stop offset="0.0829" stop-color="#F2F6FF"/>
<stop offset="0.484" stop-color="#FBFCFF" stop-opacity="0.5627"/>
<stop offset="1" stop-color="white" stop-opacity="0"/>
</radialGradient>
<radialGradient id="paint32_radial_109_115" cx="0" cy="0" r="1" gradientUnits="userSpaceOnUse" gradientTransform="translate(108.711 147.063) rotate(-73.1304) scale(67.6984 77.5762)">
<stop offset="0.0775" stop-color="#6C5CE7"/>
<stop offset="1" stop-color="#6C5CE7"/>
</radialGradient>
<radialGradient id="paint33_radial_109_115" cx="0" cy="0" r="1" gradientUnits="userSpaceOnUse" gradientTransform="translate(156.489 160.566) scale(44 44.0001)">
<stop offset="0.0775" stop-color="#6C5CE7"/>
<stop offset="1" stop-color="#6C5CE7"/>
</radialGradient>
<radialGradient id="paint34_radial_109_115" cx="0" cy="0" r="1" gradientUnits="userSpaceOnUse" gradientTransform="translate(35.136 106.908) scale(62.3298 62.3298)">
<stop stop-color="#FA404B"/>
<stop offset="0.025" stop-color="#FA484F" stop-opacity="0.975"/>
<stop offset="0.1916" stop-color="#FC7565" stop-opacity="0.8084"/>
<stop offset="0.3589" stop-color="#FD9B78" stop-opacity="0.6411"/>
<stop offset="0.5244" stop-color="#FEB886" stop-opacity="0.4756"/>
<stop offset="0.6876" stop-color="#FECD91" stop-opacity="0.3124"/>
<stop offset="0.8474" stop-color="#FFDA97" stop-opacity="0.1526"/>
<stop offset="1" stop-color="#FFDE99" stop-opacity="0"/>
</radialGradient>
<radialGradient id="paint35_radial_109_115" cx="0" cy="0" r="1" gradientUnits="userSpaceOnUse" gradientTransform="translate(109.509 145.875) scale(22.4558 22.4558)">
<stop stop-color="#FA404B"/>
<stop offset="0.025" stop-color="#FA484F" stop-opacity="0.975"/>
<stop offset="0.1916" stop-color="#FC7565" stop-opacity="0.8084"/>
<stop offset="0.3589" stop-color="#FD9B78" stop-opacity="0.6411"/>
<stop offset="0.5244" stop-color="#FEB886" stop-opacity="0.4756"/>
<stop offset="0.6876" stop-color="#FECD91" stop-opacity="0.3124"/>
<stop offset="0.8474" stop-color="#FFDA97" stop-opacity="0.1526"/>
<stop offset="1" stop-color="#FFDE99" stop-opacity="0"/>
</radialGradient>
</defs>
</svg>
