<svg width="12" height="12" viewBox="0 0 12 12" fill="none" xmlns="http://www.w3.org/2000/svg">
<path d="M5.99998 12C5.88703 12 5.7792 11.9496 5.70236 11.861L0.906413 6.32847C0.905179 6.32705 0.903945 6.32562 0.902743 6.3242C0.320585 5.6343 0 4.72002 0 3.74973C0 2.77942 0.320585 1.86517 0.902743 1.1753L0.975623 1.08896C1.56821 0.38675 2.35942 0 3.20354 0C4.04767 0 4.83891 0.38675 5.43153 1.08899L5.99998 1.76266L6.56844 1.08903C7.16102 0.386785 7.95224 3.4775e-05 8.79639 3.4775e-05C9.64054 3.4775e-05 10.4318 0.386785 11.0244 1.08906L11.0972 1.1752C11.6794 1.86524 12 2.77949 12 3.74977C12 4.72005 11.6794 5.63433 11.0973 6.3242C11.0961 6.32569 11.0948 6.32712 11.0936 6.32854L6.29761 11.8611C6.22077 11.9496 6.11294 12 5.99998 12ZM1.50354 5.73959L5.99998 10.9266L10.4964 5.73955C11.4215 4.641 11.421 2.85544 10.4946 1.75772L10.4219 1.67158C9.98513 1.15396 9.40784 0.868954 8.79639 0.868954C8.18491 0.868954 7.60762 1.15396 7.17096 1.67141L6.30128 2.70207C6.22434 2.79329 6.11486 2.84532 6.00005 2.84532C5.88524 2.84532 5.77576 2.79329 5.69879 2.70207L4.82907 1.67148C4.39238 1.15399 3.81513 0.868989 3.20364 0.868989C2.59216 0.868989 2.01487 1.15396 1.57821 1.67145L1.50533 1.75779C0.579008 2.85551 0.578391 4.64107 1.50354 5.73959Z" fill="#FA404B"/>
</svg>
