<svg width="20" height="20" viewBox="0 0 20 20" fill="none" xmlns="http://www.w3.org/2000/svg">
<g clip-path="url(#clip0_117_653)">
<path d="M19.7271 4.9067L15.0935 0.273068C14.8685 0.0477161 14.5936 -0.0442371 14.3393 0.0205286C14.0848 0.0853723 13.8874 0.29799 13.7977 0.604005L13.5876 1.32158C13.4804 1.68733 13.1613 2.22498 12.8906 2.49565L9.12678 6.2601C8.85541 6.53174 8.31651 6.86174 7.94998 6.9808L5.77584 7.68682C5.47432 7.78455 5.26608 7.98807 5.20444 8.24514C5.14283 8.50217 5.23627 8.77795 5.46045 9.00143L7.53026 11.0717L4.40713 14.194C4.39979 14.2013 4.39284 14.209 4.38627 14.2171L0.0706865 19.4895C-0.0310323 19.6137 -0.0220088 19.7948 0.0915459 19.9084C0.152249 19.9691 0.232288 19.9999 0.312601 19.9999C0.382522 19.9999 0.45264 19.9765 0.510452 19.9292L5.78346 15.6133C5.79151 15.6068 5.79916 15.5998 5.80651 15.5925L8.92866 12.4703L10.9983 14.5404C11.1765 14.719 11.388 14.8144 11.5968 14.8144C11.6495 14.8144 11.7021 14.8083 11.7539 14.7959C12.0113 14.7344 12.2154 14.5263 12.3141 14.2243L13.0189 12.0499C13.1377 11.6844 13.4677 11.1454 13.7394 10.8732L17.504 7.10893C17.7738 6.83932 18.3117 6.52068 18.6785 6.41311L19.3961 6.20264C19.7022 6.11283 19.9149 5.91526 19.9798 5.66049C20.0445 5.40608 19.9523 5.13119 19.7271 4.9067ZM5.37557 15.1395L2.53737 17.4625L4.85998 14.6249L7.97209 11.5136L8.48674 12.0284L5.37557 15.1395ZM19.374 5.50639C19.3683 5.52873 19.3227 5.57291 19.2201 5.60299L18.5026 5.81346C18.2789 5.87904 18.0167 5.99998 17.7665 6.14565L17.442 5.82115C17.3199 5.69912 17.1221 5.69912 17.0001 5.82119C16.878 5.94322 16.878 6.14108 17.0001 6.26311L17.2425 6.50545C17.1767 6.5594 17.1155 6.61354 17.0621 6.6669L13.2972 10.4315C13.2617 10.467 13.2258 10.5062 13.1898 10.5474L12.9528 10.3104C12.8307 10.1883 12.6329 10.1883 12.5108 10.3104C12.3888 10.4324 12.3888 10.6303 12.5109 10.7523L12.8159 11.0573C12.6473 11.3263 12.503 11.6149 12.4243 11.857L11.7197 14.0308C11.6878 14.1287 11.6409 14.1802 11.6087 14.1879C11.577 14.1956 11.5126 14.1709 11.4404 14.0986L9.1567 11.8144C9.1544 11.812 9.15237 11.8094 9.14998 11.807C9.1476 11.8046 9.14502 11.8026 9.1426 11.8003L5.90205 8.55908C5.82948 8.4867 5.80463 8.42237 5.81221 8.39069C5.81983 8.35897 5.87112 8.31279 5.96869 8.28115L8.14299 7.5751C8.38522 7.49643 8.67366 7.35233 8.94233 7.18397L11.6331 9.87451C11.6942 9.93553 11.7741 9.96604 11.8541 9.96604C11.9341 9.96604 12.014 9.93553 12.0751 9.87451C12.1971 9.75244 12.1971 9.55459 12.0751 9.43256L9.45233 6.81006C9.49377 6.77373 9.53319 6.73752 9.56885 6.70182L13.3326 2.93744C13.386 2.88404 13.4402 2.82299 13.4941 2.75729L16.1224 5.38529C16.1834 5.44631 16.2633 5.47682 16.3433 5.47682C16.4233 5.47682 16.5033 5.44631 16.5643 5.38529C16.6863 5.26322 16.6863 5.06537 16.5643 4.94334L13.8545 2.23373C14.0006 1.98322 14.1219 1.72076 14.1874 1.49717L14.3975 0.779708C14.4276 0.677364 14.4715 0.631779 14.4937 0.626114C14.4961 0.62549 14.4989 0.625177 14.5022 0.625177C14.529 0.625177 14.5843 0.647482 14.6514 0.714747C14.6514 0.714825 14.6515 0.714865 14.6516 0.714943L19.2855 5.34893C19.3608 5.42401 19.3797 5.48424 19.374 5.50639Z" fill="#6C5CE7"/>
</g>
<defs>
<clipPath id="clip0_117_653">
<rect width="20" height="20" fill="white"/>
</clipPath>
</defs>
</svg>
