<svg width="24" height="16" viewBox="0 0 24 16" fill="none" xmlns="http://www.w3.org/2000/svg">
<g clip-path="url(#clip0_117_848)">
<rect width="16" height="16" fill="white"/>
<path d="M15.5314 4.9123L7.09068 13.3524C6.46564 13.9775 5.45173 13.9775 4.82609 13.3524L0.468959 8.99493C-0.15632 8.36977 -0.15632 7.35573 0.468959 6.73045C1.09436 6.10506 2.10819 6.10506 2.73331 6.73022L5.95872 9.95566L13.2666 2.6477C13.892 2.02231 14.906 2.02278 15.5311 2.6477C16.1563 3.27298 16.1563 4.28666 15.5314 4.9123Z" fill="#67FF92"/>
</g>
<g clip-path="url(#clip1_117_848)">
<path d="M23.5314 4.9123L15.0907 13.3524C14.4656 13.9775 13.4517 13.9775 12.8261 13.3524L8.46896 8.99493C7.84368 8.36977 7.84368 7.35573 8.46896 6.73045C9.09436 6.10506 10.1082 6.10506 10.7333 6.73022L13.9587 9.95566L21.2666 2.6477C21.892 2.02231 22.906 2.02278 23.5311 2.6477C24.1563 3.27298 24.1563 4.28666 23.5314 4.9123Z" fill="#67FF92"/>
</g>
<defs>
<clipPath id="clip0_117_848">
<rect width="16" height="16" fill="white"/>
</clipPath>
<clipPath id="clip1_117_848">
<rect width="16" height="16" fill="white" transform="translate(8)"/>
</clipPath>
</defs>
</svg>
