<svg width="330" height="289" viewBox="0 0 330 289" fill="none" xmlns="http://www.w3.org/2000/svg">
<path d="M286.301 207.647C283.249 215.127 279.659 222.249 274.931 228.891C268.528 237.927 262.544 247.322 253.927 254.444C233.281 271.558 210.721 284.963 183.373 287.775C169.669 289.212 155.786 288.793 142.262 286.22C126.643 283.227 111.563 278.44 97.1411 271.678C84.694 265.933 73.8626 258.154 64.0486 248.519C55.4314 240.022 50.0456 230.028 45.9763 219.017C45.4378 217.641 44.8992 216.205 44.8992 214.709C46.0362 213.871 45.737 212.734 45.5575 211.716C44.7795 207.647 44.3008 203.518 44.4803 199.329C44.6598 195.799 44.959 192.208 45.0189 188.677C45.0787 185.266 43.1039 183.351 39.5134 182.992C36.5812 181.018 33.5891 179.043 29.8789 181.317C28.4427 181.077 27.0065 181.257 25.5703 181.437C22.8774 181.796 20.1845 182.214 17.4916 181.077C20.0648 177.607 23.6553 176.111 27.9041 175.871C29.3403 175.811 31.0159 175.811 30.956 173.896C30.8962 172.221 29.2805 171.802 27.8443 171.682C21.8002 171.144 13.9011 176.589 12.3452 182.274C8.27599 181.796 4.20674 181.377 0.0776559 182.214C-1.05934 167.553 10.4303 154.687 25.2711 154.149C27.4852 154.089 29.6395 154.089 31.8537 154.029C33.2899 156.183 34.6662 158.338 35.8032 160.671C36.7009 162.586 37.8977 164.322 39.5733 165.638C45.0787 169.827 51.6015 171.024 55.192 162.586C57.1668 157.919 58.4234 152.952 60.9368 148.523C63.3305 144.275 64.7667 139.607 66.0832 134.88C68.1178 127.579 71.2894 120.877 77.4532 116.089C82.5397 112.14 87.8656 108.429 93.0719 104.659C98.8167 100.47 104.921 96.9997 111.862 95.2044C115.991 94.1273 120.12 93.1698 124.19 91.8533C132.986 88.9809 141.963 91.0753 150.759 92.1525C158.838 93.1099 166.737 93.4092 174.756 91.9729C180.98 90.8958 187.263 89.8186 193.666 89.9982C199.231 90.1777 204.856 89.9982 210.422 90.058C211.379 90.058 212.456 90.1179 213.354 90.4171C228.015 95.0249 241.659 101.248 253.149 111.96C258.355 116.867 263.801 121.535 268.768 126.681C271.879 129.853 274.512 133.563 276.547 137.513C278.223 140.804 279.06 144.394 279.778 147.985C280.317 150.678 281.693 152.653 284.386 153.251C289.892 154.388 294.38 152.294 298.329 148.643C300.723 147.327 303.715 147.207 305.63 144.993C309.879 146.848 314.487 147.805 318.676 149.96C326.635 154.149 331.063 164.023 328.909 172.64C325.139 172.4 321.369 172.221 317.598 171.981C315.803 168.331 314.487 164.441 310.896 161.928C306.827 158.996 298.688 158.457 294.739 161.03C293.841 161.629 292.704 162.347 293.003 163.544C293.303 164.681 294.619 164.561 295.577 164.561C297.97 164.561 300.364 164.382 302.758 164.441C307.186 164.561 309.939 166.656 311.495 170.785C305.092 170.246 298.928 171.622 292.704 172.64C290.49 172.999 288.874 174.495 288.396 176.709C288.096 178.085 287.139 180.06 289.473 180.958C289.353 182.514 289.114 184.129 289.652 185.685C288.455 186.224 288.815 187.361 288.755 188.258C288.635 189.934 288.515 191.61 288.455 193.225C288.216 198.252 285.882 202.74 286.301 207.647ZM249.917 132.127C249.678 123.928 246.207 117.466 239.984 112.259C233.82 107.113 226.519 105.018 218.8 103.463C207.908 101.189 198.633 104.659 189.597 109.985C187.981 110.943 186.665 112.319 185.468 113.815C177.808 123.39 174.636 133.743 179.124 145.771C181.698 152.653 185.348 158.397 192.23 161.569C194.683 162.706 197.077 163.843 199.531 165.04C199.77 167.613 198.872 170.246 200.129 172.7C202.403 177.188 212.995 181.676 217.842 180.12C222.45 178.624 227.118 177.248 231.606 175.333C241.779 170.964 248.601 163.484 250.995 152.533C252.131 147.267 252.61 141.821 253.867 136.495C254.346 133.982 252.79 132.366 249.917 132.127ZM75.4784 144.634C69.7934 144.993 68.4769 149.78 70.4517 154.508C70.8107 155.286 71.5288 155.884 71.2894 156.961C69.6737 164.501 72.6658 171.024 76.1366 177.307C78.65 181.855 83.4373 183.89 87.7459 186.344C97.9191 192.088 107.913 189.755 117.547 184.847C121.975 182.573 122.275 179.282 119.163 175.033C120.001 174.734 120.838 174.375 121.676 174.136C137.115 170.007 149.084 161.808 156.085 146.728C162.249 133.443 159.616 118.064 148.126 108.968C141.125 103.403 132.867 99.8721 123.95 99.9319C105.399 99.9918 90.0199 106.096 81.2232 124.108C78.0516 130.631 74.7603 137.034 75.4784 144.634ZM159.975 192.388C155.427 192.088 150.819 191.31 146.271 191.669C129.157 193.046 117.308 202.381 109.708 217.401C104.98 226.677 107.733 235.593 111.683 244.33C112.102 245.288 112.999 246.245 113.957 246.664C117.727 248.28 121.557 250.314 125.506 250.973C130.413 251.751 135.26 252.768 140.108 253.905C149.323 255.999 158.718 255.94 168.054 255.521C174.277 255.221 180.501 254.563 186.844 254.743C198.394 255.042 209.943 255.461 220.236 248.519C222.989 246.664 225.681 244.869 226.699 241.817C229.81 232.422 230.469 223.027 224.784 214.23C221.612 209.383 217.722 205.074 213.952 200.706C210.661 196.876 206.412 194.662 201.625 193.166C192.888 190.353 184.031 190.293 174.995 191.31C176.132 186.044 179.663 181.796 180.86 176.47C181.817 172.161 180.441 167.793 176.192 166.536C168.832 164.382 161.651 166.057 154.709 168.331C151.059 169.528 150.7 172.58 153.333 175.333C157.881 180.18 159.317 186.104 159.975 192.388ZM166.258 274.491C170.388 274.311 174.576 274.012 178.706 273.892C181.458 273.772 184.211 273.294 186.904 272.755C189.716 272.217 191.153 270.601 191.153 267.609C191.153 264.557 189.477 263.061 186.724 262.582C185.767 262.403 184.69 262.522 183.972 261.625C182.356 259.59 180.142 259.231 177.748 259.53C174.576 259.829 171.465 260.428 168.353 260.547C165.181 260.667 162.07 262.103 158.958 261.744C155.248 261.266 151.597 260.428 147.827 259.949C144.596 259.53 141.723 260.667 140.886 263.121C139.988 265.814 141.663 269.404 144.656 270.242C151.777 272.217 158.718 274.969 166.258 274.491Z" fill="#FFF3B1"/>
<path d="M31.2552 95.5635C31.9135 90.5966 33.5292 85.8691 35.6835 81.3809C39.4536 73.422 44.6598 66.6 51.3023 60.8552C57.7053 55.2899 63.2706 48.8868 70.0328 43.6806C82.5996 33.9264 96.7821 27.8823 112.281 24.2918C126.344 21.0005 140.227 20.8808 154.35 23.454C159.796 24.4714 165.421 24.9501 170.806 26.2068C171.165 26.3863 171.465 26.6257 171.824 26.8052C180.142 30.3359 189.058 30.5752 197.795 30.8744C214.311 31.4728 230.768 30.8744 247.284 29.7973C251.174 29.5579 253.448 25.0698 251.354 21.5989C249.678 18.7864 247.105 16.5722 245.31 13.8794C241.48 8.13454 236.094 4.78339 229.93 2.27003C228.554 1.67162 226.818 1.61177 225.921 0.115729C236.692 -0.363006 247.105 1.91098 257.457 4.18497C267.571 6.39912 276.547 10.8873 284.326 17.7691C290.191 22.9753 296.235 28.002 302.518 32.7295C302.758 32.9689 302.997 33.1484 303.177 33.3878L303.117 33.3279C302.937 35.4823 304.194 37.1578 305.271 38.7736C309.639 45.2963 310.956 52.6569 311.435 60.2568C312.153 71.0283 309.221 81.3211 307.246 91.6737C306.767 94.1273 305.81 93.1099 304.673 92.2123C300.424 88.7415 296.773 84.6124 292.764 80.9621C287.737 76.2944 282.352 71.9259 276.068 69.1134C267.511 65.3433 258.415 63.189 249.498 60.3166C243.694 58.4615 237.53 58.5214 231.725 56.9655C223.348 54.6316 215.089 51.7592 206.652 49.4254C197.915 47.0317 188.998 46.912 180.261 45.5955C170.447 44.1593 160.394 46.2538 150.46 45.9546C149.862 45.9546 149.263 46.1341 148.725 46.2538C142.142 47.5703 135.56 49.1262 128.917 50.0837C117.128 51.6994 105.818 54.871 94.8073 59.1198C81.5822 64.2662 68.5966 70.011 56.0298 76.7133C51.9007 78.9274 47.8314 81.0219 44.2409 84.1337C39.7528 87.784 35.7434 91.9131 31.2552 95.5635Z" fill="#3C2CB4"/>
<path d="M31.2553 95.5635C35.7434 91.9131 39.7528 87.784 44.1213 84.0738C47.7717 81.0219 51.8409 78.8676 55.9101 76.6535C68.4769 69.9512 81.4028 64.2063 94.6877 59.0599C105.758 54.7513 117.009 51.6396 128.798 50.0238C135.44 49.1262 142.023 47.5105 148.605 46.194C149.204 46.0743 149.802 45.8947 150.341 45.8947C160.274 46.1341 170.328 44.0396 180.142 45.5357C188.939 46.8522 197.855 46.9719 206.532 49.3656C214.97 51.6396 223.168 54.5718 231.606 56.9056C237.41 58.5214 243.574 58.4017 249.379 60.2568C258.295 63.0694 267.391 65.2835 275.949 69.0535C282.232 71.8063 287.618 76.2346 292.644 80.9022C296.654 84.6124 300.304 88.7415 304.553 92.1525C305.63 93.0501 306.647 94.0674 307.126 91.6139C309.041 81.2014 312.033 70.9086 311.315 60.1969C310.836 52.597 309.46 45.2365 305.151 38.7137C304.074 37.098 302.818 35.4224 302.997 33.2681C307.066 35.7216 309.879 39.4917 311.973 43.4412C317.778 54.3324 320.89 65.8819 316.581 78.2093C315.145 82.2786 315.205 86.3478 315.923 90.5966C317 96.8201 317 103.104 316.581 109.387C316.462 110.883 316.162 112.439 314.487 113.037C312.632 113.755 311.495 112.618 310.358 111.422C305.331 106.275 301.322 100.171 295.038 96.1021C284.685 89.3399 274.393 82.6376 262.484 78.7479C253.388 75.8157 244.472 72.4047 235.496 69.1732C224.425 65.1638 212.696 64.326 201.206 62.6505C190.375 61.0946 179.484 59.1796 168.532 59.9576C155.008 60.915 141.544 62.3513 128.259 65.4032C121.257 67.0189 113.957 66.5402 107.015 68.4551C93.1916 72.2252 79.2485 76.1149 66.3825 82.3384C53.8755 88.3226 42.4457 96.2217 34.3671 108.07C33.2899 109.626 31.734 110.344 29.9986 109.746C27.964 109.028 28.0238 107.173 28.3829 105.437C29.0412 102.146 29.8789 98.7949 31.2553 95.5635Z" fill="#3C2CB4"/>
<path d="M49.9259 98.5556C60.3384 89.6391 72.2469 83.1762 85.472 79.5857C98.9364 75.9353 112.102 71.3275 125.686 68.4551C138.133 65.8221 150.7 63.7276 163.446 63.189C165.421 63.1292 167.395 62.8898 169.37 62.6505C184.989 61.2142 199.89 65.104 215.03 68.0362C235.256 71.9858 253.687 80.6629 272.657 88.0234C275.53 89.1604 278.402 90.2974 281.274 91.3745C286.301 93.2296 290.789 95.8028 294.5 99.7524C292.704 99.9918 292.046 101.368 291.627 102.804C290.909 105.677 290.49 108.609 289.712 111.481C288.336 116.628 286.78 121.774 285.164 127.339C284.087 125.843 283.429 124.886 282.711 123.929C277.804 117.406 273.256 110.644 265.835 106.634C263.262 105.258 260.928 103.762 258.953 101.607C252.55 94.5462 245.07 88.8013 236.154 85.2707C228.793 82.3384 221.672 78.7479 213.713 77.5511C206.771 76.5338 199.83 74.9779 192.888 74.8582C186.964 74.7385 181.458 72.644 175.474 72.7039C167.336 72.8236 159.257 74.3795 151.118 74.0204C146.69 73.8409 142.441 74.7385 138.193 75.6361C132.149 76.8928 126.404 79.1668 120.539 80.8424C114.555 82.5179 108.631 84.3132 102.766 86.4077C100.732 87.1258 98.6372 87.8439 96.7821 88.9809C88.2845 94.1273 80.5051 100.351 72.4264 106.036C66.5021 110.225 61.7147 115.251 58.9022 121.894C57.7652 124.647 55.551 127.16 56.2093 130.451L56.1495 130.631C54.7731 130.212 54.4739 129.075 54.1148 127.938C52.7385 122.971 51.9007 117.944 51.4818 112.798C51.2424 108.07 51.9007 103.163 49.9259 98.5556Z" fill="#3C2CB4"/>
<path d="M298.21 148.823C294.26 152.533 289.772 154.627 284.267 153.431C281.574 152.832 280.138 150.857 279.659 148.164C278.941 144.574 278.103 140.924 276.427 137.692C274.393 133.743 271.76 130.032 268.648 126.861C263.681 121.714 258.235 117.047 253.029 112.14C241.599 101.428 227.896 95.1446 213.234 90.5966C212.337 90.2974 211.26 90.2375 210.302 90.2375C204.737 90.2375 199.112 90.3572 193.546 90.1777C187.143 89.9982 180.92 91.0753 174.636 92.1525C166.677 93.5887 158.718 93.2895 150.64 92.332C141.843 91.2549 132.927 89.1604 124.07 92.0328C120.001 93.3493 115.872 94.3068 111.743 95.3839C104.801 97.1792 98.697 100.65 92.9522 104.839C87.746 108.609 82.4799 112.319 77.3335 116.269C71.1698 121.056 67.9982 127.699 65.9635 135.059C64.647 139.787 63.2108 144.454 60.8171 148.703C58.3038 153.191 57.0471 158.098 55.0723 162.766C51.4818 171.144 44.9591 170.007 39.4536 165.818C37.778 164.561 36.5812 162.766 35.6836 160.851C34.5466 158.517 33.1702 156.363 31.734 154.208C32.6915 153.61 33.7686 153.849 34.7859 153.61C37.5985 155.166 39.693 157.56 41.9071 159.774C43.9417 161.749 46.1559 161.569 47.0535 159.056C47.8315 156.841 48.7291 154.627 49.3275 152.294C51.2424 144.993 52.8582 137.632 56.0298 130.691L56.0896 130.511C61.7746 119.021 70.332 110.225 81.0437 103.403C86.0704 100.231 91.0373 96.8201 96.3632 94.0674C109.469 87.3651 123.112 82.2187 138.013 81.1416C150.759 80.244 163.506 79.9447 176.252 80.244C181.937 80.3636 187.682 80.5432 193.187 81.5605C203.959 83.5353 214.91 84.7919 225.322 88.2628C236.094 91.8533 246.806 95.3839 256.081 102.744C271.401 114.892 283.189 129.075 287.319 148.643C287.857 151.157 289.473 151.815 291.807 150.917C294.081 150.139 295.996 149.062 298.21 148.823Z" fill="#FFF3B1"/>
<path d="M298.21 148.823C295.996 149.062 294.081 150.199 292.046 150.977C289.712 151.875 288.096 151.216 287.558 148.703C283.369 129.135 271.58 114.952 256.32 102.804C247.045 95.4438 236.333 91.9131 225.562 88.3226C215.149 84.8518 204.198 83.6549 193.427 81.6203C187.861 80.603 182.116 80.4235 176.491 80.3038C163.745 80.0046 150.999 80.3038 138.252 81.2014C123.412 82.2187 109.708 87.3651 96.6025 94.1273C91.2765 96.88 86.3695 100.231 81.283 103.463C70.5114 110.285 62.0139 119.141 56.3289 130.571C55.6706 127.22 57.8848 124.706 59.0218 122.014C61.7745 115.311 66.6217 110.285 72.546 106.155C80.6845 100.47 88.4041 94.2469 96.9017 89.1005C98.8166 87.9635 100.851 87.3053 102.886 86.5273C108.75 84.4329 114.675 82.6376 120.659 80.9621C126.523 79.2865 132.268 77.0125 138.312 75.7558C142.561 74.8582 146.81 73.9606 151.238 74.1401C159.377 74.4991 167.455 72.9432 175.594 72.8236C181.518 72.7637 187.023 74.8582 193.008 74.9779C199.949 75.0976 206.891 76.6534 213.833 77.6708C221.792 78.8676 228.913 82.4581 236.273 85.3903C245.19 88.921 252.67 94.6658 259.073 101.727C261.048 103.881 263.442 105.378 265.955 106.754C273.315 110.763 277.923 117.585 282.83 124.048C283.548 125.006 284.207 125.963 285.284 127.459C286.9 121.834 288.455 116.747 289.832 111.601C290.61 108.729 291.029 105.796 291.747 102.924C292.106 101.488 292.764 100.052 294.619 99.8721C301.86 104.779 307.844 110.883 312.751 118.124C314.606 120.817 315.025 122.971 313.469 126.621C311.255 131.887 307.725 136.615 306.647 142.42C306.468 143.377 305.929 144.275 305.57 145.172C303.595 147.387 300.603 147.446 298.21 148.823Z" fill="#3C2CB4"/>
<path d="M225.801 0.0558896C226.699 1.55194 228.434 1.67162 229.81 2.2102C235.974 4.72355 241.36 8.0747 245.19 13.8195C246.985 16.5124 249.558 18.6667 251.234 21.5391C253.328 25.0099 251.054 29.4981 247.165 29.7374C230.708 30.8744 214.192 31.413 197.675 30.8146C188.939 30.5154 180.022 30.276 171.704 26.7454C171.345 26.5658 171.046 26.3265 170.687 26.1469C173.739 27.1642 175.055 25.3091 176.491 22.9753C184.391 10.3487 196.479 4.30466 210.601 1.61178C215.688 0.71415 220.715 -0.24332 225.801 0.0558896ZM188.579 29.5579C199.71 29.9768 210.541 30.0367 221.433 29.0193C218.441 27.7028 215.448 26.6855 212.397 25.8477C207.49 24.5312 202.283 24.7706 197.376 23.6336C192.35 22.4367 190.315 24.8903 188.639 28.6603C188.639 28.7201 188.699 28.8398 188.579 29.5579Z" fill="#3C2CB4"/>
<path d="M56.2093 130.691C53.0377 137.572 51.422 144.993 49.507 152.294C48.9086 154.568 48.0708 156.782 47.233 159.056C46.3354 161.509 44.1213 161.749 42.0866 159.774C39.8127 157.56 37.778 155.166 34.9655 153.61C30.8364 145.172 28.3829 136.196 27.7844 126.801C27.4254 121.415 29.6994 116.927 33.3497 113.157C38.4363 107.831 44.1811 103.223 49.8661 98.6752C51.8409 103.283 51.1826 108.19 51.5417 112.918C51.9007 118.064 52.7385 123.091 54.1747 128.058C54.5337 129.075 54.8928 130.272 56.2093 130.691Z" fill="#3C2CB4"/>
<path d="M39.5733 182.992C43.1638 183.351 45.1386 185.266 45.0787 188.677C45.0189 192.208 44.7197 195.799 44.5402 199.329C44.3606 203.518 44.8394 207.647 45.6173 211.716C45.7968 212.734 46.0961 213.931 44.9591 214.709C44.6 211.417 42.9244 211.357 40.1717 212.255C24.6727 217.042 10.3106 208.246 4.20676 198.312C1.27451 193.525 0.616253 187.899 0.257202 182.334C4.32645 181.496 8.45553 181.915 12.5248 182.394C12.5846 184.668 12.5248 186.942 12.824 189.216C13.5421 195.14 18.2098 198.91 24.1341 198.671C27.6648 198.491 31.0159 197.654 34.2474 196.337C39.693 194.003 42.0866 188.079 39.5733 182.992Z" fill="#FFF3B1"/>
<path d="M286.301 207.647C285.882 202.74 288.156 198.252 288.336 193.405C288.396 191.789 288.515 190.114 288.635 188.438C288.695 187.481 288.336 186.403 289.533 185.865C291.926 188.737 295.397 189.575 298.689 190.473C308.323 193.225 321.608 185.386 317.479 172.161C321.249 172.4 325.019 172.58 328.789 172.819C328.729 178.085 328.609 183.351 326.216 188.258C321.668 197.474 312.093 202.381 301.441 200.706C297.372 200.047 293.662 202.082 289.652 201.424C288.635 201.244 288.575 202.441 288.276 203.099C287.618 204.595 287.319 206.271 286.301 207.647Z" fill="#FFF3B1"/>
<path d="M303.117 33.328C302.877 33.0886 302.638 32.9091 302.458 32.6697C302.638 32.8492 302.877 33.0886 303.117 33.328Z" fill="#063DD6"/>
<path d="M174.995 191.251C183.972 190.233 192.888 190.293 201.625 193.106C206.353 194.662 210.661 196.816 213.952 200.646C217.723 205.014 221.612 209.323 224.784 214.17C230.529 222.907 229.811 232.362 226.699 241.757C225.682 244.809 222.989 246.604 220.236 248.459C209.883 255.401 198.334 254.982 186.844 254.683C180.561 254.503 174.337 255.162 168.054 255.461C158.718 255.88 149.383 255.94 140.108 253.845C135.26 252.768 130.413 251.751 125.506 250.913C121.497 250.255 117.727 248.22 113.957 246.604C113.059 246.185 112.102 245.228 111.683 244.27C107.793 235.534 105.04 226.617 109.708 217.342C117.308 202.321 129.157 192.986 146.271 191.61C150.76 191.251 155.367 192.088 159.975 192.328C165.181 194.243 170.029 192.567 174.995 191.251Z" fill="#010100"/>
<path d="M99.5347 175.392C104.801 177.427 110.127 175.392 115.393 175.512C116.649 175.512 117.966 175.153 119.223 174.974C122.334 179.163 122.035 182.514 117.607 184.788C107.972 189.695 97.9788 192.028 87.8057 186.284C83.4971 183.89 78.7098 181.796 76.1964 177.248C72.6657 170.964 69.7335 164.441 71.3492 156.901C71.5886 155.824 70.8705 155.286 70.5114 154.448C68.5366 149.78 69.8532 144.933 75.5381 144.574L75.7775 144.514C75.4185 149.182 77.3932 153.251 79.4279 157.201C83.7365 165.937 89.6608 172.879 99.5347 175.392Z" fill="#FFF3B1"/>
<path d="M199.471 165.04C202.642 165.937 205.814 165.698 209.045 165.578C215.568 166.177 221.852 164.681 228.195 163.484C232.683 162.646 236.573 160.193 239.086 156.303C241.42 152.712 243.754 149.122 245.429 145.232C247.225 141.043 250.097 137.094 249.678 132.127H249.917C252.79 132.366 254.406 133.982 253.807 136.435C252.55 141.702 252.072 147.147 250.935 152.473C248.541 163.424 241.719 170.904 231.546 175.273C227.118 177.188 222.45 178.624 217.782 180.06C212.935 181.616 202.343 177.128 200.069 172.64C198.872 170.246 199.71 167.553 199.471 165.04Z" fill="#FFF3B1"/>
<path d="M166.258 274.491C158.718 274.969 151.837 272.217 144.775 270.242C141.723 269.404 140.048 265.754 141.005 263.121C141.843 260.667 144.715 259.53 147.947 259.949C151.657 260.428 155.367 261.265 159.077 261.744C162.189 262.163 165.241 260.667 168.473 260.547C171.644 260.428 174.756 259.829 177.868 259.53C180.261 259.291 182.476 259.59 184.091 261.625C184.809 262.522 185.827 262.402 186.844 262.582C189.597 263.061 191.272 264.557 191.272 267.609C191.272 270.601 189.896 272.217 187.024 272.755C184.331 273.294 181.578 273.772 178.825 273.892C174.576 274.072 170.388 274.311 166.258 274.491Z" fill="#FFF3B1"/>
<path d="M174.995 191.251C170.088 192.567 165.181 194.243 160.035 192.388C159.377 186.104 157.941 180.12 153.393 175.333C150.76 172.52 151.119 169.528 154.769 168.331C161.711 166.057 168.892 164.382 176.252 166.536C180.501 167.793 181.877 172.161 180.92 176.47C179.663 181.736 176.073 185.985 174.995 191.251Z" fill="#FFF3B1"/>
<path d="M317.539 172.161C321.668 185.446 308.383 193.225 298.748 190.473C295.457 189.515 291.926 188.737 289.592 185.865C289.054 184.309 289.293 182.753 289.413 181.137C290.311 179.163 291.268 177.188 293.183 175.931C294.799 174.914 296.654 174.136 297.91 176.051C299.227 178.085 297.252 178.684 295.876 179.402C294.38 180.18 293.901 181.616 293.841 183.112C293.781 184.728 295.277 184.788 296.295 185.266C298.21 186.104 300.244 186.583 302.339 186.762C307.246 187.062 312.572 183.292 313.529 178.803C314.128 175.871 312.871 173.358 311.435 170.964C309.879 166.835 307.126 164.741 302.698 164.621C300.304 164.561 297.91 164.741 295.517 164.741C294.559 164.741 293.243 164.92 292.944 163.723C292.644 162.526 293.722 161.808 294.679 161.21C298.688 158.637 306.767 159.175 310.836 162.108C314.367 164.621 315.743 168.511 317.539 172.161Z" fill="#090800"/>
<path d="M39.5732 182.992C42.0866 188.019 39.6929 194.003 34.1874 196.277C30.956 197.594 27.6048 198.491 24.0742 198.611C18.1498 198.91 13.4822 195.08 12.7641 189.156C12.4648 186.882 12.5845 184.608 12.4648 182.334C14.0207 176.649 21.9199 171.204 27.9639 171.742C29.4001 171.862 31.0158 172.281 31.0757 173.956C31.1355 175.811 29.4599 175.811 28.0237 175.931C23.8348 176.17 20.1844 177.666 17.6112 181.137C16.7136 183.83 16.8931 186.583 17.5514 189.336C18.0301 191.37 19.3467 192.926 21.3813 193.525C25.9891 194.901 30.2379 193.764 34.1276 191.251C35.6236 190.293 36.7606 188.618 36.2221 186.643C35.7433 184.788 34.0079 184.608 32.3922 184.488C30.4174 184.369 29.4599 183.471 29.9387 181.377C33.6489 179.043 36.6409 181.018 39.5732 182.992Z" fill="#090800"/>
<path d="M311.375 170.964C312.811 173.358 314.068 175.811 313.469 178.803C312.512 183.292 307.186 187.062 302.279 186.762C300.185 186.643 298.15 186.104 296.235 185.266C295.218 184.847 293.722 184.728 293.781 183.112C293.841 181.556 294.32 180.12 295.816 179.402C297.252 178.684 299.227 178.085 297.851 176.051C296.594 174.136 294.679 174.914 293.123 175.931C291.208 177.188 290.251 179.163 289.353 181.137C287.019 180.24 287.977 178.265 288.276 176.889C288.695 174.734 290.311 173.238 292.585 172.819C298.748 171.802 304.972 170.426 311.375 170.964Z" fill="#FFF3B1"/>
<path d="M29.9986 181.377C29.46 183.471 30.4773 184.369 32.4521 184.488C34.0678 184.608 35.8033 184.788 36.282 186.643C36.8206 188.618 35.6836 190.233 34.1875 191.251C30.2978 193.764 26.049 194.961 21.4412 193.525C19.4066 192.926 18.0901 191.37 17.6113 189.336C17.0129 186.643 16.7736 183.89 17.6712 181.137C20.3042 182.214 23.0569 181.855 25.7498 181.496C27.1262 181.317 28.5026 181.077 29.9986 181.377Z" fill="#FFF3B1"/>
<path d="M146.391 134.58C143.937 128.237 139.449 123.988 133.645 120.817C130.772 119.261 127.84 118.483 124.549 118.244C115.752 117.705 108.212 120.458 101.33 125.784C97.1411 129.015 96.423 133.443 97.3206 138.111C98.697 145.232 105.758 151.635 112.999 152.772C118.086 153.55 124.968 147.387 124.668 142.3C124.549 140.565 123.711 139.308 122.095 138.59C120.061 137.692 118.445 138.53 116.829 139.727C114.435 141.522 112.161 140.804 111.204 137.991C111.084 137.632 111.024 137.213 111.084 136.854C111.742 133.204 119.342 128.117 122.753 129.434C127.9 131.469 131.73 134.939 132.807 140.684C134.183 147.805 131.67 153.67 127.002 158.816C125.865 160.073 124.19 160.791 122.514 161.03C117.487 161.868 112.52 162.526 107.494 163.245C104.681 163.663 102.168 162.826 99.7741 161.39C93.5506 157.56 89.7207 151.755 88.5239 144.813C87.6262 139.607 90.1396 134.521 92.4734 129.733C95.1663 124.228 99.7143 120.877 105.04 118.363C106.297 117.765 107.494 116.987 108.75 116.448C112.939 114.533 116.829 111.422 121.916 112.618C129.934 114.533 137.774 116.927 143.638 123.151C146.511 126.262 147.348 130.212 146.391 134.58Z" fill="#FFF3B1"/>
<path d="M148.126 108.908C141.125 103.343 132.867 99.8122 123.95 99.8721C105.399 99.9319 90.0199 106.036 81.2231 124.048C77.9917 130.631 74.7602 137.034 75.4783 144.634L75.7177 144.574C76.6153 144.514 77.2137 144.753 77.7523 145.172C77.2736 144.753 76.6153 144.514 75.7177 144.574C75.3586 149.242 77.3334 153.311 79.368 157.26C83.7365 165.878 89.6608 172.819 99.5347 175.333C104.801 177.367 110.127 175.333 115.393 175.452C116.65 175.452 117.966 175.093 119.223 174.914C120.06 174.615 120.898 174.255 121.736 174.016C137.175 169.887 149.144 161.689 156.145 146.609C162.249 133.384 159.616 118.004 148.126 108.908ZM146.391 134.58C143.937 128.237 139.449 123.988 133.645 120.817C130.772 119.261 127.84 118.483 124.549 118.244C115.752 117.705 108.212 120.458 101.33 125.784C97.1411 129.015 96.423 133.443 97.3206 138.111C98.6969 145.232 105.758 151.635 112.999 152.772C118.086 153.55 124.968 147.387 124.668 142.3C124.549 140.565 123.711 139.308 122.095 138.59C120.06 137.692 118.445 138.53 116.829 139.727C114.435 141.522 112.161 140.804 111.204 137.991C111.084 137.632 111.024 137.213 111.084 136.854C111.742 133.204 119.342 128.117 122.753 129.434C127.9 131.469 131.73 134.939 132.807 140.684C134.183 147.805 131.67 153.67 127.002 158.816C125.865 160.073 124.19 160.791 122.514 161.03C117.487 161.868 112.52 162.526 107.494 163.245C104.681 163.663 102.168 162.826 99.7741 161.389C93.5505 157.56 89.7207 151.755 88.5238 144.813C87.6262 139.607 90.1396 134.521 92.4734 129.733C95.1663 124.228 99.7143 120.877 105.04 118.363C106.297 117.765 107.494 116.987 108.75 116.448C112.939 114.533 116.829 111.422 121.916 112.618C129.934 114.533 137.774 116.927 143.638 123.151C146.511 126.262 147.348 130.212 146.391 134.58Z" fill="#3C2CB4"/>
<path d="M216.645 137.154C214.97 138.231 213.474 138.171 211.918 137.453C209.464 136.376 207.13 136.615 205.634 139.068C204.078 141.522 205.036 143.736 206.771 145.591C210.541 149.541 218.201 149.96 223.108 146.489C227.776 143.198 229.392 137.094 226.938 131.887C223.348 124.168 214.012 120.039 205.874 122.492C202.582 123.45 199.59 125.065 196.957 127.22C191.332 131.768 189.477 137.812 190.614 144.873C190.674 145.352 190.794 145.831 190.853 146.309C190.853 146.369 190.794 146.429 190.614 146.668C187.802 144.634 186.425 141.761 186.425 138.53C186.365 132.067 188.34 126.202 192.709 121.236C193.367 120.518 194.025 119.62 194.923 119.261C198.992 117.406 202.882 114.773 207.31 114.234C215.987 113.097 224.006 115.072 231.127 120.458C234.538 123.031 237.171 125.903 237.949 130.212C238.009 130.691 238.308 131.229 238.188 131.648C235.855 138.769 234.718 146.549 227.776 151.157C226.938 151.695 226.04 152.294 225.083 152.413C218.141 153.55 211.26 154.089 204.916 149.96C201.386 147.626 201.386 143.916 201.266 140.385C201.206 137.752 203.66 136.675 205.694 135.657C210.302 133.264 212.875 133.623 216.645 137.154Z" fill="#FFF3B1"/>
<path d="M249.917 132.127C249.678 123.929 246.207 117.466 239.983 112.259C233.82 107.113 226.519 105.018 218.799 103.463C207.908 101.189 198.633 104.659 189.597 109.985C187.981 110.943 186.664 112.319 185.468 113.815C177.808 123.39 174.636 133.743 179.124 145.771C181.698 152.653 185.348 158.397 192.23 161.569C194.683 162.706 197.077 163.843 199.53 165.04C202.702 165.937 205.874 165.698 209.105 165.578C209.464 164.8 210.003 164.262 210.661 164.023C210.003 164.322 209.524 164.8 209.105 165.578C215.628 166.177 221.911 164.681 228.254 163.484C232.743 162.646 236.632 160.193 239.146 156.303C241.48 152.712 243.813 149.122 245.489 145.232C247.284 141.043 250.157 137.094 249.738 132.127C249.678 132.067 249.917 132.127 249.917 132.127ZM204.976 149.84C201.445 147.506 201.445 143.796 201.326 140.265C201.266 137.632 203.719 136.555 205.754 135.538C210.362 133.264 212.935 133.623 216.705 137.154C215.029 138.231 213.533 138.171 211.977 137.453C209.524 136.376 207.19 136.615 205.694 139.068C204.138 141.522 205.096 143.736 206.831 145.591C210.601 149.541 218.261 149.96 223.168 146.489C227.836 143.198 229.451 137.094 226.998 131.887C223.407 124.168 214.072 120.039 205.933 122.492C202.642 123.45 199.65 125.065 197.017 127.22C191.392 131.768 189.537 137.812 190.674 144.873C190.734 145.352 190.853 145.831 190.913 146.309C190.913 146.369 190.853 146.429 190.674 146.668C187.861 144.634 186.485 141.761 186.485 138.53C186.425 132.067 188.4 126.202 192.768 121.236C193.427 120.518 194.085 119.62 194.982 119.261C199.052 117.406 202.941 114.773 207.37 114.234C216.047 113.097 224.066 115.072 231.187 120.458C234.598 123.031 237.231 125.903 238.009 130.212C238.069 130.691 238.368 131.229 238.248 131.648C235.914 138.769 234.777 146.549 227.836 151.157C226.998 151.695 226.1 152.294 225.143 152.413C218.201 153.49 211.259 153.969 204.976 149.84Z" fill="#3C2CB4"/>
</svg>
