<svg width="47" height="47" viewBox="0 0 47 47" fill="none" xmlns="http://www.w3.org/2000/svg">
<g clip-path="url(#clip0_115_564)">
<path d="M45.0168 10.31L6.1612 17.751L16.4873 27.6113L45.0168 10.31Z" fill="white"/>
<path d="M45.0167 10.31L20.7466 41.5525L16.4872 27.6112L45.0167 10.31Z" fill="white"/>
<path d="M22.4561 23.4368L23.0786 24.4526L26.1831 22.5502L25.5606 21.5343L22.4561 23.4368Z" fill="white"/>
<path d="M4.92372 17.3877L16.0334 28.071L20.5086 42.82L46.9944 9.0981L4.92372 17.3877ZM20.9846 40.2852L17.262 28.0169L22.0439 25.0865L21.4214 24.0706L16.6394 27.001L7.39825 18.1144L42.3931 11.219L27.1129 20.5828L27.7354 21.5987L43.0157 12.235L20.9846 40.2852Z" fill="#6C5CE7"/>
</g>
<defs>
<clipPath id="clip0_115_564">
<rect width="38.9731" height="38.9731" fill="white" transform="translate(9.09814) rotate(13.5)"/>
</clipPath>
</defs>
</svg>
